<svg width="131" height="134" viewBox="0 0 131 134" fill="none" xmlns="http://www.w3.org/2000/svg">
<path fill-rule="evenodd" clip-rule="evenodd" d="M79.6611 108.994C76.7803 109.018 73.5418 107.936 71.3764 107.09L70.8117 106.866C68.9373 106.115 67.0122 105.253 65.5765 103.807C65.1174 103.337 64.6285 102.805 64.3803 102.246C64.2348 101.918 64.1744 101.579 64.3149 101.242C64.8341 101.191 65.3261 101.124 65.7921 101.039C66.014 100.999 66.2265 100.957 66.3896 100.956C66.9902 100.952 67.5844 101.028 68.1782 101.103C68.2641 101.114 68.3501 101.125 68.4361 101.136C68.8984 101.193 69.3584 101.255 69.8176 101.316C71.1532 101.496 72.4818 101.674 73.8368 101.738C74.8152 101.785 75.841 101.73 76.8759 101.674C79.5601 101.528 82.3352 101.329 84.4033 103.209C84.9449 103.701 85.1713 104.322 85.1713 104.953C85.1713 105.721 84.8481 106.503 84.3553 107.116C83.2388 108.504 81.5207 108.979 79.6611 108.994ZM95.3693 84.7797C94.1161 86.6601 92.0281 87.8693 89.167 87.7379C83.4807 87.4779 76.6942 85.3323 71.9317 82.2297C70.6914 81.422 69.8872 80.1306 69.743 78.747L69.4864 76.2856L68.0998 78.3354C67.9554 78.5489 67.8096 78.7619 67.6639 78.975C67.2624 79.5618 66.8612 80.1484 66.4826 80.7498C65.0297 83.0585 63.6979 85.3903 62.4884 87.8359C61.6322 89.5676 61.0062 91.5044 60.3783 93.4585C59.3185 96.7578 58.2947 100.003 56.0302 102.321C55.6878 102.672 55.1615 102.798 54.6797 102.736C54.2551 102.681 53.839 102.473 53.635 102.058C50.9294 96.5553 54.5686 89.9243 57.5206 85.3144L57.8329 84.833C60.5702 80.6671 65.0408 75.1541 70.1608 74.4046L70.747 75.3395L71.5992 74.7711C72.993 73.8414 74.8328 73.8846 76.4436 74.612L78.0545 75.3391C81.0531 76.6849 84.0109 77.9266 87.2553 78.6068C87.4917 78.6563 87.728 78.7026 87.9638 78.7455C88.1865 78.7861 88.4104 78.8241 88.6355 78.8593C88.587 78.6381 88.5352 78.4179 88.4832 78.1983C88.4283 77.966 88.3729 77.7332 88.3135 77.5011C88.2522 77.2614 88.1868 77.0231 88.1215 76.7857C87.8616 75.8393 87.568 74.9013 87.2198 73.983C85.9099 70.5306 83.8183 67.3018 81.7833 64.2221L81.5438 63.8598C81.252 63.4185 80.9326 62.958 80.602 62.4818C79.0151 60.1964 77.2552 57.7161 77.1305 55.2264C79.237 55.359 80.9997 56.6678 82.5513 57.8073C84.6807 59.3701 86.6541 61.1572 88.4442 63.0988C91.9165 66.8654 95.0328 71.6808 96.3995 76.6586C97.182 79.5091 96.8378 82.5762 95.3693 84.7797V84.7797ZM39.8132 56.3823L39.8127 56.2807C39.819 53.4064 41.4929 46.8437 45.6304 46.8437C48.2152 46.8437 49.7845 51.3101 50.0561 55.9143L50.0656 56.102C50.1855 58.9645 49.4001 65.2214 45.6304 65.2214C41.8208 65.2214 39.8524 59.2953 39.8132 56.3823V56.3823ZM100.728 55.4808L100.729 55.3792C100.723 52.5049 99.0488 45.9422 94.9112 45.9422C92.3911 45.9422 90.8363 50.188 90.5083 54.6678L90.4855 55.0128C90.3223 57.7786 91.0568 64.3199 94.9112 64.3199C98.7208 64.3199 100.689 58.3938 100.728 55.4808V55.4808ZM53.7478 36.9299C53.1995 36.9941 52.6539 37.0784 52.1086 37.165C50.5176 37.4185 48.9352 37.7228 47.3636 38.0774C44.3787 38.7513 41.4178 39.6022 38.5135 40.5638C35.7958 41.4639 33.1203 42.4812 30.4455 43.4983C30.3028 43.5526 30.1601 43.6069 30.0173 43.6611C29.0729 44.0203 28.1316 44.4226 27.1875 44.8264C25.7505 45.4408 24.307 46.0594 22.834 46.5255C26.7149 41.1589 32.6952 37.1825 38.4493 34.337C41.7325 32.7135 45.2155 31.4043 48.7191 30.3316L50.6703 29.7452C53.5434 28.8975 56.6848 28.1144 59.3837 29.8047C60.4511 30.4733 61.1322 31.5125 61.3468 32.636C61.5572 33.7378 61.3171 34.9191 60.5564 35.9049C59.8936 36.7638 59.0677 37.2529 58.1887 37.4206C57.2184 37.6056 56.1902 37.4024 55.2542 36.9024C54.5044 36.8466 54.2831 36.8668 54.0613 36.8914L53.7478 36.9299ZM96.9694 37.4759C95.0465 37.0578 93.1424 36.8899 91.1695 36.9501C90.2774 36.9769 89.4143 37.1148 88.5535 37.2535C87.2166 37.4689 85.8848 37.6914 84.4445 37.43C83.693 37.2935 83.053 36.854 82.5587 36.2802C81.9807 35.6093 81.5984 34.752 81.4758 33.9368C81.3491 33.0947 81.4751 32.3582 81.7867 31.7079C82.1547 30.9396 82.7747 30.2921 83.5241 29.725C85.7915 28.0082 89.682 28.4211 92.3581 28.7682C95.0025 29.112 97.6323 29.9321 99.9701 31.2346C102.276 32.5203 104.281 34.2521 105.846 36.3691C107.164 38.1534 107.786 40.207 108.427 42.298C105.41 39.7664 100.792 38.3057 96.9694 37.4759Z" fill="black"/>
</svg>
