<svg width="216" height="252" viewBox="0 0 216 252" fill="none" xmlns="http://www.w3.org/2000/svg">
<path fill-rule="evenodd" clip-rule="evenodd" d="M210.44 141.282C207.423 141.578 204.406 141.874 201.389 142.17C186.941 143.275 172.499 145.581 158.161 146.965C157.804 146.384 157.106 146.48 156.681 146.884C155.251 146.758 153.647 145.664 152.351 146.802C152.309 146.796 152.267 146.789 152.225 146.785C149.917 142.355 148.322 137.629 146.774 132.897C145.786 129.988 144.457 127.172 142 125.218C137.808 122.307 128.202 116.403 123.279 116.652C123.197 115.77 122.786 114.861 122.112 114.274C123.599 111.738 117.653 110.083 117.234 110.377C117.503 101.905 113.519 94.5466 104.734 92.8594C96.8645 91.2189 85.6711 90.9433 81.4385 99.171C80.9732 99.1186 76.2174 99.0938 75.7572 99.1454C75.0417 98.2389 67.1848 106.829 70.405 109.819C41.615 122.56 25.245 121.039 17.2764 156.857C16.1991 160.221 16.1207 163.903 14.9831 167.193C10.936 176.647 7.65338 186.714 6.83643 197.001C4.86331 197.506 4.63639 200.987 6.92187 201.49C7.79486 201.683 8.5249 201.946 9.16145 202.444C8.66384 210.874 10.7019 230.131 11.986 230.072C14.6043 238.408 26.2835 240.761 34.552 237.831C33.1267 240.514 34.552 242.201 34.552 243.634C64.3042 244.76 96.8351 244.111 126.579 245.656C130.384 245.602 134.386 246.591 138.138 246.021C140.427 245.473 140.431 241.873 138.109 241.427L148.253 239.223C148.026 239.138 152.434 236.205 155.766 230.724C158.867 224.593 156.756 217.192 158.161 210.522C169.135 209.624 180.291 209.241 191.145 207.381C192.625 211.811 199.031 206.513 201.068 204.382C201.065 204.379 201.063 204.376 201.06 204.372C202.046 204.103 202.836 203.179 202.862 202.085C203.554 201.097 203.699 199.704 203.036 198.75C206.074 181.214 210.705 163.311 212.378 145.61C212.97 145.479 213.527 145.22 214 144.82L213.962 144.782C214.762 143.889 214.918 142.348 213.583 141.589C212.507 140.977 211.608 141.167 210.44 141.282Z" fill="white"/>
<path fill-rule="evenodd" clip-rule="evenodd" d="M81.9871 97.2596C82.8835 95.006 85.9137 95.8821 85.5759 98.2496C85.3737 99.6678 84.5973 101.166 83.8999 102.409C83.332 103.42 82.6843 104.408 81.806 105.166C83.3694 106.625 84.9921 108.031 86.6561 109.366C88.4717 110.822 90.3809 112.165 92.3544 113.399C94.0849 114.481 95.8936 115.44 97.5247 116.674C99.0414 117.822 100.423 119.203 101.126 121.005C101.875 122.924 101.55 124.906 100.998 126.824L100.935 127.041C100.371 128.941 99.3959 131.231 100.748 133.021C101.437 133.933 102.438 134.578 103.302 135.306C104.07 135.954 104.792 136.658 105.453 137.415C106.895 139.064 108.067 140.919 108.807 142.987L108.874 143.174C109.508 145.005 109.972 147.247 109.114 149.043C108.869 149.558 108.075 149.391 107.938 148.89C107.626 147.753 107.643 146.563 107.381 145.411C107.11 144.213 106.658 143.075 106.067 141.999C104.925 139.917 103.377 138.139 101.549 136.635L101.002 136.19C99.576 135.019 98.2657 133.777 97.9762 131.84C97.6665 129.766 98.4968 127.792 99.0307 125.829C99.4027 124.462 99.5242 123.151 99.1221 121.915C98.6309 122.717 97.9608 123.479 97.4307 124.158C96.375 125.511 95.3094 126.855 94.2465 128.202C93.1568 129.584 92.0939 130.987 91.0817 132.426C90.629 133.07 90.1811 133.718 89.7347 134.367C89.399 134.854 88.9308 135.341 88.5649 135.838C88.6538 136.104 88.6471 136.41 88.4859 136.628C86.5454 139.251 83.7847 133.778 83.0647 132.396C81.5986 129.58 80.5074 126.588 79.0363 123.773C77.512 120.855 75.7762 118.014 73.8417 115.35C72.6714 113.738 71.3599 112.225 70.2894 110.562C67.7675 112.85 64.4489 114.383 61.4007 115.774C58.0516 117.302 54.5722 118.55 51.1385 119.875L50.1242 120.269C44.2077 122.579 38.1466 125.117 33.2288 129.22C27.45 134.041 24.0313 140.761 21.4862 147.72C18.5563 155.732 16.1324 163.959 13.8729 172.181C12.7167 176.388 11.6195 180.614 10.5881 184.854C9.67926 188.589 8.92588 192.361 7.87377 196.057C10.0076 195.982 12.4412 196.808 14.2629 197.047C22.5655 198.134 30.7564 199.867 38.595 202.868C39.5633 203.238 39.8434 204.206 39.6326 204.99C40.191 204.832 40.7489 204.672 41.3073 204.515C40.6955 203.578 40.9875 201.901 41.0356 200.862L41.0386 200.79C41.088 199.405 41.2382 198.019 41.3356 196.637C41.5211 194.001 41.7625 191.385 42.0835 188.765L42.1655 188.11C42.5293 185.259 42.7982 182.392 43.1952 179.546L43.2421 179.22C43.0517 178.492 42.8301 177.773 42.5975 177.057C41.9776 175.149 41.1028 173.354 40.3361 171.507C40.2457 171.289 40.5554 171.164 40.7001 171.295C41.9986 172.463 43.03 173.946 43.8586 175.496C43.8729 175.423 43.8856 175.35 43.9006 175.276L43.9951 174.811C44.2283 173.675 44.5119 172.481 45.2081 171.56C45.2823 171.462 45.4289 171.442 45.499 171.56C46.1654 172.688 46.24 174.117 46.3424 175.4C46.4584 176.852 46.473 178.322 46.4525 179.778C46.4126 182.624 46.2121 185.477 46.0524 188.318C45.8957 191.11 45.588 193.866 45.1914 196.63L45.116 197.148C44.9222 198.464 44.7635 199.796 44.5078 201.103L44.4355 201.458C44.2988 202.106 44.2148 203.02 43.9426 203.779C50.9436 201.825 57.9554 199.916 64.9805 198.041C70.0578 196.686 75.1405 195.35 80.2211 194.006C80.4892 193.523 80.823 193.072 81.2396 192.668C82.6122 191.338 84.4312 190.745 86.0996 191.769C86.2352 191.852 86.2467 192.065 86.0996 192.145C85.78 192.32 85.4597 192.499 85.1451 192.686L88.1958 191.86C90.476 191.241 92.7835 190.469 95.1174 190.038C99.416 187.916 104.039 186.38 108.568 184.862L109.101 184.681C111.42 183.89 113.818 183.005 116.214 182.567C117.967 182.246 120.026 182.633 120.731 184.43C121.624 185.019 122.464 185.711 123.275 186.391C123.861 186.883 124.422 187.405 124.994 187.914L125.099 188.007C125.566 188.412 125.936 188.683 126.051 189.329C126.11 189.662 125.898 190.113 125.487 190.068C124.23 189.934 123.208 188.476 122.355 187.605C121.696 186.932 121.032 186.237 120.431 185.497C120.081 185.688 119.6 185.654 119.377 185.231C118.22 183.04 115.051 184.558 113.297 185.078L110.785 185.822C109.53 186.194 108.274 186.568 107.021 186.949C103.576 187.995 100.149 189.167 96.6729 190.128C96.9839 190.47 96.941 191.078 96.3503 191.309C93.6296 192.377 90.6448 192.929 87.8183 193.662C86.0337 194.125 84.2502 194.591 82.4673 195.06C82.1616 195.555 81.9417 196.116 81.8491 196.768C81.5089 199.167 82.1651 201.935 82.8043 204.255L82.9006 204.601C83.426 206.467 84.199 208.753 85.8079 209.931C86.2006 210.219 86.7007 210.418 87.2048 210.464C90.3541 208.842 93.5033 207.221 96.6543 205.602C97.2381 205.302 97.7774 205.708 97.9084 206.191C99.0195 206.008 100.128 205.721 101.138 205.378C102.834 204.802 104.159 203.703 105.749 202.942C108.827 201.472 111.969 203.278 114.724 204.652L115.359 204.964C116.595 205.563 119.165 206.716 119.758 205.075C120.332 203.489 118.519 201.793 117.348 201.078C115.952 200.227 114.327 199.771 112.75 199.392C111.849 199.175 110.938 198.998 110.021 198.869C108.98 198.722 107.906 198.744 106.904 198.407C106.406 198.239 106.33 197.449 106.904 197.318C108.446 196.967 110.286 197.35 111.895 197.741L112.736 197.948C114.357 198.346 115.994 198.846 117.471 199.64C118.544 200.217 119.677 201.094 120.418 202.168C121.061 201.57 121.861 201.591 122.694 201.812L123.147 201.938C123.894 202.145 124.499 202.288 125.226 202.144C125.323 201.615 125.422 201.086 125.527 200.557C126.563 195.354 127.699 190.172 128.952 185.018C131.114 176.127 133.616 167.333 136.437 158.63L136.72 157.76C137.37 155.769 137.894 153.6 138.943 151.771C139.934 150.042 141.524 149.046 143.412 148.518C145.554 147.92 147.806 147.607 149.992 147.202C150.479 147.112 150.968 147.027 151.456 146.938C151.044 146.193 150.736 145.348 150.459 144.699L150.41 144.586C149.814 143.228 149.279 141.844 148.762 140.454L148.376 139.408C147.443 136.891 146.48 134.415 145.168 132.061C143.787 129.583 141.955 127.557 139.671 125.88C135.015 122.461 129.404 120.718 124.888 117.064C124.703 116.914 124.94 116.658 125.128 116.753C128.177 118.286 131.469 119.328 134.64 120.576L135.266 120.823C137.773 121.817 140.318 122.899 142.488 124.509C144.907 126.303 146.812 128.532 148.244 131.183C149.656 133.796 150.558 136.72 151.554 139.511L151.82 140.254C152.222 141.369 152.637 142.481 153.112 143.566C153.49 144.428 154.194 145.411 154.514 146.395C155.389 146.243 156.265 146.091 157.142 145.944C176.127 142.773 195.326 140.91 214.566 140.365C215.319 140.343 215.708 141.062 215.598 141.719C213.751 152.642 212.11 163.602 210.31 174.533C209.524 179.304 208.722 184.071 207.902 188.836C207.486 191.25 207.006 193.655 206.612 196.072C206.295 198.025 206.064 199.992 205.518 201.9C205.029 203.61 204.278 205.259 203.045 206.563C201.716 207.97 199.86 208.65 197.993 208.972C193.252 209.788 188.389 210.122 183.609 210.665L158.163 213.561C158.535 216.943 158.562 220.271 158.392 223.692L158.295 225.56C158.215 227.062 158.12 228.566 157.904 230.052C157.634 231.917 156.781 233.496 155.525 234.889C154.372 236.168 152.971 237.259 151.608 238.305C150.193 239.391 148.732 240.439 147.068 241.111L146.852 241.196C145.393 241.766 142.656 242.649 140.661 242.326C140.922 243.633 141.427 245.038 140.979 246.331C140.772 246.932 139.987 247.231 139.506 246.72C138.554 245.708 138.479 244.37 138.254 243.049C138.019 241.675 137.816 240.295 137.637 238.912C137.289 236.239 137.018 233.54 136.936 230.844C136.851 228.075 136.883 225.302 137.033 222.536C137.109 221.115 137.204 219.695 137.385 218.284C137.462 217.682 137.54 217.08 137.63 216.479C137.663 216.26 137.699 216.043 137.738 215.825L135.454 216.083C131.952 216.474 128.448 216.827 124.921 216.882C124.504 216.888 124.182 216.698 123.972 216.421C123.749 216.786 123.359 217.046 122.801 217.044C117.876 217.026 113.289 215.415 108.809 213.516C106.551 212.559 104.328 211.522 102.067 210.573C99.9562 209.687 97.6997 209.055 95.6398 208.057L90.2271 210.897C90.1874 211.037 90.1365 211.169 90.0824 211.279C89.73 211.999 89.0352 212.389 88.3255 212.683C87.6444 212.966 86.939 213.054 86.2517 212.983C82.1467 215.135 78.0408 217.285 73.9321 219.429L69.8225 221.572C61.6346 225.837 53.479 230.172 45.2396 234.337L44.633 234.642C41.7871 236.07 38.7311 237.517 35.5729 238.597C35.5167 239.397 35.5521 240.174 35.6191 241.021L35.6352 241.205C35.7294 242.205 35.9313 243.459 35.1292 244.171C34.7119 244.541 33.9666 244.543 33.6829 243.984C33.168 242.972 33.6302 241.375 33.7933 240.275C33.8512 239.884 33.9218 239.482 34.0262 239.092C30.4055 240.17 26.6751 240.693 22.9906 240.087C19.4033 239.498 16.6249 237.238 14.385 234.472C12.0212 231.554 10.3414 228.153 9.4401 224.508C8.4144 220.359 8.34743 216.075 8.37151 211.826C8.39708 207.301 8.5644 202.754 9.11454 198.26C8.51179 198.118 7.84334 197.995 7.23426 198.038C6.93257 198.521 6.34736 198.724 5.81856 198.661C4.66863 199.93 7.58539 201.226 8.5175 201.551C8.84116 201.664 8.80651 202.19 8.4332 202.174L8.19806 202.163C6.75777 202.086 5.26976 201.84 4.42292 200.501C3.74433 199.428 3.9482 198.156 4.75715 197.281C5.29144 192.227 6.56877 187.306 7.75757 182.376C8.92419 177.537 10.2216 172.729 11.5967 167.946L12.2132 165.805C14.3783 158.304 16.6414 150.743 19.6281 143.541C21.1194 139.945 22.8374 136.414 25.1662 133.279C27.337 130.355 29.8999 127.854 32.8458 125.718C38.3377 121.735 44.7819 119.328 51.1136 117.035L51.397 116.933C54.6782 115.745 57.9514 114.544 61.1952 113.257C64.064 112.119 66.8124 110.677 69.6676 109.522C69.5749 109.354 69.4853 109.183 69.3991 109.011L69.3463 109.056C69.3373 109.063 69.3281 109.07 69.3184 109.076C69.0313 109.275 68.6086 109.177 68.3719 108.954C67.7038 108.323 67.93 107.623 68.376 106.969L68.434 106.886C68.9795 106.122 69.4661 105.313 69.9695 104.521L70.2848 104.026C71.1299 102.702 72.0179 101.37 73.1447 100.276C73.6665 99.7696 74.2378 99.3905 74.8431 99.1079C74.7913 98.9984 75.2451 98.7746 75.3738 98.8872C77.2914 98.1851 79.4977 98.3322 81.5884 98.5258M156.932 213.701L154.265 214.005C151.332 214.339 148.398 214.661 145.463 214.981L139.089 215.674C139.072 216.038 139.028 216.393 139.02 216.668C138.978 218.083 138.947 219.499 138.918 220.915C138.859 223.753 138.924 226.594 139.111 229.426C139.292 232.171 139.53 234.916 139.9 237.642L139.976 238.187L140.02 238.474C140.323 238.503 140.62 238.646 140.867 238.942C141.406 239.586 143.358 238.96 144.121 238.688C145.374 238.242 146.555 237.488 147.645 236.732C148.709 235.993 149.667 235.132 150.587 234.225L151.341 233.48C152.09 232.735 152.84 231.941 153.299 231.004C153.922 229.734 154.002 228.174 154.185 226.79C154.41 225.088 154.677 223.386 154.96 221.692M79.5324 195.833L79.2559 195.906C69.2099 198.577 59.1789 201.326 49.1021 203.878C44.1153 205.142 39.1049 206.313 34.112 207.552L33.3037 207.755C29.3648 208.751 25.3787 209.949 22.3624 212.807C22.251 212.912 22.0894 212.751 22.1942 212.639C25.445 209.177 30.0684 207.712 34.5075 206.441C35.3281 206.206 36.1497 205.977 36.9705 205.743C30.9333 203.59 24.8008 201.717 18.5268 200.381C16.9112 200.037 15.2769 199.785 13.6626 199.439C12.5368 199.198 11.4373 198.85 10.3234 198.561L9.44716 198.34L9.43552 201.111C9.42094 205.035 9.4279 208.955 9.628 212.878L9.66588 213.605C9.89935 217.971 10.2638 222.427 11.8125 226.544C13.071 229.889 15.077 233.041 17.7003 235.477C19.0277 236.71 20.4548 237.67 22.2189 238.144C23.8569 238.584 25.573 238.635 27.2568 238.518C35.3334 237.954 42.5228 233.565 49.5386 229.931C61.014 223.987 72.4907 218.047 83.9777 212.126C83.6672 211.913 83.3748 211.668 83.1088 211.393C81.5684 209.802 80.7559 207.623 80.2222 205.514C79.6541 203.268 79.3144 200.861 79.2749 198.542M94.1488 214.42C94.2502 214.365 94.3677 214.434 94.3723 214.548C94.4078 215.426 93.923 216.292 93.5607 217.082L93.5224 217.167C93.0823 218.146 92.6004 219.112 92.1021 220.063C91.1059 221.964 90.0707 223.844 88.9903 225.697C86.8176 229.425 84.4033 232.997 81.5495 236.243C80.9049 236.977 79.8448 236.036 80.2584 235.247C82.2528 231.44 84.5778 227.846 86.971 224.284C88.1691 222.5 89.3664 220.714 90.5763 218.938C91.081 218.198 91.5922 217.459 92.1172 216.732L92.434 216.297M213.294 142.545C203.213 142.849 193.144 143.507 183.111 144.538C173.78 145.496 164.483 146.772 155.239 148.363C153.308 148.695 151.38 149.041 149.454 149.4L148.298 149.618C146.372 149.983 144.019 150.134 142.304 151.163C140.495 152.248 140.007 154.516 139.405 156.387C138.698 158.587 138.008 160.793 137.338 163.004C134.674 171.784 132.241 180.64 130.07 189.555C128.993 193.98 128.037 198.43 127.029 202.871C126.134 206.817 125.147 210.718 124.115 214.625C124.243 214.526 124.398 214.451 124.587 214.41C129.709 213.32 134.939 212.846 140.138 212.244L140.641 212.185C146.02 211.552 151.398 210.924 156.78 210.319L192.413 206.31C194.514 206.074 196.765 206.042 198.81 205.478C202.287 204.518 203.102 200.629 203.686 197.532L203.703 197.439C205.462 188.082 206.862 178.643 208.502 169.262M124.945 203.747C123.561 203.656 121.668 202.389 120.618 202.479C121.169 203.404 121.418 204.459 121.1 205.586C120.217 208.72 116.22 207.099 114.295 206.141C112.717 205.355 111.193 204.394 109.445 204.026C107.466 203.61 106.124 204.397 104.452 205.305C103.078 206.05 101.582 206.586 100.044 206.863C99.2259 207.01 98.4489 207.026 97.6733 206.969C97.6267 207.007 97.574 207.042 97.514 207.073L97.1038 207.289C98.9589 207.374 100.848 207.946 102.575 208.471C104.364 209.014 106.12 209.669 107.867 210.338L109.586 210.999C113.825 212.623 118.213 214.165 122.801 214.152C123.131 214.151 123.401 214.242 123.614 214.391M117.205 193.925C118.571 193.758 119.833 193.937 120.925 194.827C122.242 195.9 123.127 197.68 125.02 197.797C125.572 197.831 125.7 198.608 125.152 198.77C123.742 199.187 122.601 198.425 121.641 197.434L120.995 196.76C120.047 195.777 119.171 195.017 117.561 195.075C115.837 195.138 114.11 195.537 112.396 195.74C110.456 195.969 108.515 196.165 106.569 196.334C106.478 196.342 106.463 196.199 106.547 196.178L108.728 195.635M115.886 188.336L116.111 188.313C118.096 188.12 119.911 188.113 121.683 189.181L122.023 189.387C123.621 190.358 125.36 191.503 126.36 193.076C126.523 193.334 126.253 193.637 125.979 193.571C124.059 193.11 122.655 191.7 121.04 190.645C119.227 189.461 117.354 189.656 115.288 189.84C113.286 190.019 111.286 190.263 109.305 190.597C107.443 190.91 105.575 191.405 103.694 191.562L103.695 191.559C103.48 191.558 103.358 191.235 103.577 191.126C105.485 190.173 107.696 189.721 109.772 189.286M47.9287 134.35C47.9261 134.193 48.1469 134.134 48.224 134.27C49.5153 136.543 50.1903 139.328 50.8782 141.832C51.5986 144.455 52.1802 147.105 52.7027 149.774C53.761 155.178 54.3248 160.551 54.3631 166.06C54.3684 166.846 53.0876 167.055 52.9624 166.249C52.1306 160.891 51.3337 155.528 50.4956 150.172C50.0739 147.477 49.5831 144.794 49.1135 142.108M60.7123 138.308C60.6172 137.995 61.0731 137.89 61.1897 138.177C63.7811 144.54 64.6587 151.752 62.995 158.465C62.7404 159.492 61.2369 159.048 61.4289 158.033M94.1384 132.654C94.1253 132.419 94.4297 132.382 94.5444 132.544C95.7723 134.275 96.2817 136.592 98.436 137.487C99.5116 137.933 100.722 137.856 101.672 138.61C102.307 139.114 102.795 139.911 102.318 140.675C102.164 140.922 101.733 141.045 101.525 140.777C101.22 140.386 101.059 139.918 100.645 139.626C100.061 139.212 99.2741 139.187 98.6048 138.993C97.739 138.741 96.9759 138.302 96.351 137.649M114.652 103.787C114.779 103.722 114.9 103.764 114.981 103.873C115.097 104.029 115.082 104.181 114.941 104.288C115.13 104.674 115.353 105.643 115.385 105.784C115.514 106.355 115.652 106.923 115.796 107.491C116.086 108.636 116.34 109.79 116.631 110.935C116.939 112.149 117.306 113.35 117.714 114.534C117.741 114.61 117.77 114.689 117.8 114.768L117.847 114.888L117.858 114.87C117.941 114.739 118.114 114.83 118.093 114.969C118.074 115.095 118.049 115.221 118.027 115.348L118.07 115.461C118.337 116.18 118.52 116.938 118.03 117.572C117.847 117.81 117.645 117.95 117.393 117.992C116.99 119.321 116.485 120.626 115.943 121.879L115.784 122.245C114.988 124.073 114.138 125.877 112.87 127.434C111.486 129.133 109.581 130.293 108.375 132.155C107.814 133.021 107.423 133.932 107.106 134.91L106.987 135.281C106.762 135.973 106.503 136.644 105.854 137.05C105.647 137.179 105.337 137.138 105.17 136.961C103.84 135.553 105.232 132.925 106.034 131.562C107.149 129.666 108.763 128.454 110.379 127.024C112.121 125.482 113.232 123.42 114.307 121.389C114.965 120.145 115.601 118.873 116.27 117.624C115.571 117.005 115.347 115.778 115.11 114.924L115.089 114.848C114.697 113.481 114.386 112.079 114.19 110.671C114.001 109.317 113.922 107.982 113.972 106.621L113.986 106.274M117.251 110.231C117.097 110.02 117.352 109.78 117.564 109.824C118.853 110.09 120.112 110.87 121.269 111.501L121.392 111.568C122.315 112.066 123.244 112.676 123.728 113.644C124.256 114.695 124.212 115.906 124.14 117.048L124.133 117.155C124.045 118.526 124.031 119.949 123.741 121.295C123.593 121.983 122.97 122.177 122.437 122.015C121.802 124.018 120.021 125.494 118.719 127.075C117.06 129.09 117.372 131.811 117.546 134.239C117.616 135.222 116.394 135.501 115.765 134.977L114.314 133.771C114.073 133.57 113.831 133.369 113.591 133.166C113.385 132.993 113.181 132.818 112.978 132.641L112.676 132.374C112.541 132.254 111.95 131.593 111.777 131.565C111.358 131.499 110.362 132.604 110.021 132.95L109.978 132.993C109.336 133.623 108.757 134.299 108.217 135.017C108.118 135.149 107.924 135.04 107.995 134.887C108.478 133.851 109.041 132.86 109.709 131.932L109.844 131.748C110.288 131.149 110.884 130.091 111.668 129.914C112.626 129.699 113.582 130.659 114.279 131.192L114.323 131.226C114.655 131.475 114.982 131.728 115.309 131.983C115.275 130.175 115.503 128.349 116.436 126.792C117.094 125.693 118.079 124.88 118.922 123.936C119.861 122.885 120.351 121.593 121.201 120.499C121.31 120.358 121.461 120.282 121.624 120.258C121.657 119.378 121.786 118.489 121.887 117.619L121.916 117.358C122.017 116.412 122.256 115.257 121.793 114.371C121.356 113.535 120.353 112.944 119.61 112.377L119.003 111.906M75.4383 100.231C75.0504 100.455 74.6879 100.734 74.3589 101.083C73.3235 102.182 72.5832 103.549 71.8628 104.865C71.4749 105.573 71.101 106.29 70.7099 106.996C70.5398 107.304 70.3649 107.608 70.1881 107.912C70.1063 108.052 69.8634 108.33 69.7429 108.501C69.8767 108.689 70.0151 108.873 70.1562 109.056C70.21 109.126 73.9243 113.173 75.219 114.757C77.2015 117.184 78.9736 119.747 80.4886 122.49C81.9722 125.177 83.1016 128.021 84.4759 130.76C85.1638 132.131 85.9319 133.492 86.9112 134.679C86.949 134.725 86.9889 134.769 87.0276 134.814C87.4013 133.804 88.3589 132.723 88.8293 132.102L88.8732 132.043C89.9399 130.605 91.0664 129.21 92.2174 127.838C93.2686 126.586 94.3466 125.361 95.4507 124.156L95.866 123.705C96.6352 122.873 97.6123 121.63 98.7383 121.036C98.6177 120.82 98.4781 120.608 98.3175 120.398C97.2624 119.018 95.771 118.017 94.2994 117.114L93.345 116.533C89.7476 114.34 86.2061 112.046 83.083 109.196C81.4307 107.688 79.8012 106.109 78.4123 104.35L77.9211 103.728M81.4408 99.1449C79.7561 99.2863 77.9369 99.2527 76.3801 99.8018C77.7641 101.111 79.0797 102.524 80.4311 103.855C80.5513 102.955 80.7973 102.066 81.0056 101.188" fill="black"/>
<path fill-rule="evenodd" clip-rule="evenodd" d="M98.6703 15.9062C110.666 15.9062 123.074 25.2082 127.471 31.144C131.168 36.1346 133.159 58.7016 133.159 73.9526C133.159 77.1423 134.918 83.155 134.405 86.2061C132.523 97.3863 124.325 106.763 108.1 106.763C91.8754 106.763 80.2423 100.329 68.1826 83.055C62.3312 83.055 59.4954 78.5659 59.4542 71.4817C59.413 64.3975 65.1023 61.8201 65.1023 61.8201C65.1023 61.8201 63.0738 33.8628 68.1826 26.5841C73.2914 19.3054 86.6744 15.9062 98.6703 15.9062Z" fill="white"/>
<path fill-rule="evenodd" clip-rule="evenodd" d="M93.623 11.953C101.197 11.1858 108.619 11.8304 116.083 13.1642C116.653 13.2676 116.976 13.6419 117.097 14.0918C120.612 14.2525 124.132 14.5105 127.643 14.7028C128.917 14.7726 129.64 16.032 129.059 17.1693C128.943 17.3952 128.822 17.615 128.7 17.8348L128.853 17.7841C129.91 17.4451 131.051 17.278 132.08 17.816C133.39 18.5008 133.903 20.0117 133.614 21.4024C133.54 21.7575 133.415 22.0978 133.274 22.4298C133.561 22.4108 133.85 22.4171 134.138 22.4552C135.667 22.6581 136.804 23.8311 136.884 25.3929C137.003 27.7514 135.484 30.1441 133.694 31.8326C133.954 32.3675 134.053 32.9973 133.945 33.6356C133.73 34.8974 132.801 35.6529 131.724 36.1458C132.173 37.5726 132.385 39.0643 132.26 40.5888C132.218 41.0977 131.773 41.5181 131.303 41.6213C133.054 46.443 133.94 51.6198 134.577 56.6641C135.031 60.2531 135.255 63.8629 135.283 67.4789C135.296 69.1115 135.269 70.7459 135.201 72.3787L135.173 72.9909C135.088 74.7559 135.084 76.6092 134.767 78.3552C135.849 80.1959 136.284 82.4808 136.468 84.5433C136.696 87.0964 136.335 89.7299 135.53 92.1585C132.492 101.335 123.323 107.126 114.114 108.631C105.589 110.024 95.7251 108.149 90.7434 100.403C90.6652 100.28 90.8321 100.179 90.9293 100.26C94.4934 103.159 98.6277 104.453 103.119 105.082C110.886 106.169 119.615 104.326 125.847 99.4395C128.839 97.0935 130.996 93.6781 131.945 90.0025C132.429 88.1238 132.596 86.1644 132.405 84.2307C132.211 82.2694 131.343 80.5955 130.796 78.742C130.612 78.1162 130.806 77.535 131.188 77.1209C131.296 75.6159 131.55 74.0984 131.647 72.598C131.754 70.8922 131.82 69.1866 131.843 67.4789C131.888 63.9367 131.74 60.3881 131.442 56.8609C130.897 50.4018 129.45 44.0996 128.6 37.6954C128.286 37.9776 127.835 38.0934 127.363 37.8469L127.314 37.8201L127.056 37.6724C127.041 37.6724 127.024 37.6745 127.009 37.6764C125.246 37.8478 123.416 37.6026 121.726 37.0762C119.957 36.5269 118.316 35.6815 116.85 34.555C116.571 35.9687 116.454 37.3974 116.453 38.8388C116.45 39.7392 115.498 40.2065 114.741 39.8218C111.388 38.1181 108.186 36.1549 105.146 33.9484C104.79 35.7681 104.436 37.5876 104.078 39.4095C103.941 40.1114 103.047 40.3946 102.475 40.0606C100.198 38.7353 98.2307 37.0003 96.6293 34.9373C96.3096 35.549 95.9889 36.1605 95.6661 36.7707L95.18 37.6849C94.7004 38.5831 94.0582 39.5767 93.0082 39.8639C91.8969 40.1682 90.9692 39.4477 90.5955 38.4415C90.4814 38.1289 90.3758 37.8074 90.2786 37.4841C89.3319 39.6464 88.2631 41.7599 87.0547 43.7762C85.242 46.8004 83.0657 49.4951 80.8962 52.2596C80.2371 53.0988 79.1089 52.2976 79.018 51.482C78.9652 51.0023 78.9209 50.5204 78.8826 50.0404C77.6184 52.5927 76.2992 55.121 74.862 57.5761L75.0678 58.3828V58.3828C75.6608 60.7664 76.1533 63.1669 76.6886 65.5632C76.8614 66.3363 76.4507 67.4417 75.5478 67.5734C74.469 67.7306 73.4484 68.282 72.3435 67.9027C71.1386 67.4888 70.9005 66.4471 70.3318 65.4597C70.2183 65.2629 70.0863 65.0822 69.9443 64.9106L69.9082 64.9575V64.9575C69.8195 65.074 69.6082 64.9471 69.661 64.814L69.7229 64.6601V64.6601C69.2342 64.1413 68.6495 63.7084 68.1118 63.2428C66.834 63.0274 65.3968 63.2633 64.5164 63.7826C62.5115 64.966 61.5906 67.4049 61.5716 69.6476C61.5483 72.2725 62.3615 75.223 63.7347 77.4675C64.3392 78.4545 65.1673 79.3462 66.2615 79.7839C67.3476 80.2191 68.5244 80.084 69.6293 80.4939C70.3603 80.7667 70.8103 81.5783 70.3688 82.3136C70.3392 82.3645 70.3054 82.4108 70.2735 82.4596L70.6021 82.896C70.8281 83.1982 71.0638 83.5218 71.2835 83.8586C71.8455 84.5055 72.4371 85.129 73.0096 85.7651C74.0678 86.9379 75.0948 88.1428 76.1361 89.3325C77.1188 90.455 78.1582 91.5094 79.2293 92.5472C80.2413 93.5302 81.5047 94.3563 82.4342 95.4048C83.3383 96.4278 83.5835 98.2135 82.096 98.8055C80.4504 99.462 78.9936 97.9233 77.8858 96.8975L77.8392 96.8545C75.8085 94.9851 73.9747 92.8488 72.5184 90.4966C71.0759 91.479 68.9894 91.5728 67.553 90.5907C66.7971 90.0739 66.2171 89.2055 65.9353 88.2608C65.6695 88.3204 65.404 88.3552 65.145 88.3512C65.0116 88.4286 64.8779 88.5038 64.7427 88.574C63.6714 89.1317 62.3554 88.8826 61.8652 87.6967C61.4189 86.6201 61.8788 85.3975 62.2809 84.3603L62.3638 84.146C62.592 83.5544 62.8434 82.9098 63.1561 82.3032C62.2857 81.648 61.5418 80.8341 60.9124 79.9086C58.7976 76.7912 57.7413 72.2322 58.2082 68.5126C58.4892 66.2681 59.5432 63.9432 61.2692 62.4297L61.2061 62.2649V62.2649C60.7223 61.0372 60.2826 59.8048 59.9976 58.5073C59.6638 56.9898 59.5009 55.4174 59.3533 53.8724C59.0406 50.6091 59.1251 47.2719 59.5413 44.0214C60.323 37.9028 62.3047 31.8962 65.8223 26.8048C64.8249 25.6104 64.035 24.2049 64.4467 22.5883C64.635 21.8463 65.0636 21.1427 65.7103 20.7177C66.0671 20.4833 66.492 20.4473 66.849 20.2529L66.9564 20.1938C67.1132 20.1022 66.9933 20.1119 66.8997 19.6865C66.53 17.987 66.8364 16.345 68.7061 15.7807C70.4659 15.2502 72.1307 16.3767 73.1723 17.7188C75.8976 15.7847 79.4892 14.7726 82.6476 13.9124C86.2392 12.9379 89.9235 12.3294 93.623 11.953ZM64.1847 68.9542C64.1718 67.5699 65.4838 66.716 66.7748 66.9424C67.6417 67.0933 68.3649 67.6109 69.044 68.1459L69.3751 68.4079C70.202 69.0574 71.1514 69.7575 71.6443 70.677C72.3669 72.0338 70.8396 73.8597 69.4136 72.9086C68.4353 72.2528 67.8083 71.202 67.1666 70.2258L67.1002 70.1251C66.8086 69.6876 66.553 69.2227 66.1535 68.8718L66.0672 68.7962C65.9359 68.6843 65.7949 68.5821 65.6253 68.5337C65.2982 68.4396 64.6923 68.5713 64.5481 68.9609L64.5352 69.0007C64.4824 69.1975 64.1868 69.155 64.1847 68.9542Z" fill="black"/>
<path fill-rule="evenodd" clip-rule="evenodd" d="M118.917 88.1154C117.483 88.6793 115.789 88.8125 114.309 88.332C112.894 87.8725 111.609 86.8499 110.831 85.5637C110.139 84.4182 109.849 83.0588 110.259 81.7036C110.278 81.6387 110.342 81.5972 110.403 81.581C110.738 81.886 110.945 82.1889 111.151 82.4903C111.5 82.9985 111.849 83.5014 112.329 83.9359C113.026 84.5679 113.966 85.0813 114.899 85.2506C115.812 85.4167 116.746 85.2699 117.564 84.8326C118.061 84.5669 118.464 84.2115 118.862 83.8546C119.295 83.4659 119.722 83.0713 120.319 82.8519C120.797 82.6759 121.3 82.8244 121.686 83.1186C122.101 83.4349 122.4 83.93 122.383 84.4475C122.357 85.2494 122.007 85.9183 121.498 86.4701C120.809 87.2162 119.836 87.7538 118.917 88.1154ZM117.215 68.1322C118.81 69.1023 121.241 71.3644 119.525 73.7694C117.504 75.89 114.596 73.4586 113.162 72.359C111.833 71.5068 110.34 73.6986 111.573 74.6937C121.93 82.3647 126.134 68.3859 118.022 66.9916C117.128 66.838 116.797 67.8321 117.215 68.1322ZM100.434 54.6906C102.609 54.5866 104.525 55.5634 106.597 56.0073C108.512 56.4177 110.399 56.1713 112.261 55.6493C115.283 54.802 116.533 59.4305 113.552 60.3326C111.381 60.9894 109.095 61.0351 106.867 60.6965C104.888 60.3956 103.229 59.4318 101.342 58.8707C99.7229 58.3893 97.8181 58.5894 96.108 58.816L95.4442 58.9053C94.4576 59.0383 93.4657 59.1716 92.4888 59.3646C91.6412 59.5322 90.7951 59.8389 89.9299 59.8744C89.8317 59.8786 89.7484 59.7509 89.8104 59.6658C90.8153 58.2855 92.7523 57.1965 94.293 56.4701L94.3974 56.4211C96.2992 55.5341 98.3168 54.7916 100.434 54.6906ZM99.6374 64.8683L99.6371 64.8207C99.6401 63.4729 100.425 60.3957 102.364 60.3957C103.576 60.3957 104.311 62.49 104.439 64.6488L104.443 64.7368C104.499 66.079 104.131 69.0128 102.364 69.0128C100.578 69.0128 99.6558 66.2342 99.6374 64.8683V64.8683ZM128.191 64.8683L128.192 64.8207C128.189 63.4729 127.404 60.3957 125.465 60.3957C124.283 60.3957 123.555 62.3866 123.401 64.4871L123.39 64.6488C123.314 65.9457 123.658 69.0128 125.465 69.0128C127.25 69.0128 128.173 66.2342 128.191 64.8683V64.8683ZM128.162 53.0491L128.301 53.0521C130.567 53.1307 132.898 54.4739 133.503 56.73C133.535 56.8471 133.39 56.926 133.305 56.8456C131.441 55.1002 128.935 56.768 127.069 57.6423L126.383 57.959C123.978 59.0787 121.241 60.3951 118.57 59.5607C117.302 59.1644 116.496 57.8603 116.858 56.5432C117.18 55.3713 118.594 54.3864 119.818 54.8094L119.874 54.8296C120.869 55.2104 122.092 54.8246 123.12 54.4442L123.964 54.127C125.322 53.6117 126.686 53.0352 128.162 53.0491V53.0491Z" fill="black"/>
</svg>
