<svg width="247" height="324" viewBox="0 0 247 324" fill="none" xmlns="http://www.w3.org/2000/svg">
<path fill-rule="evenodd" clip-rule="evenodd" d="M241.496 179.325C238.479 179.621 235.462 179.917 232.446 180.213C217.997 181.318 203.555 183.624 189.217 185.008C188.86 184.427 188.162 184.523 187.737 184.926C186.307 184.801 184.703 183.707 183.407 184.845C183.365 184.839 183.323 184.832 183.281 184.828C180.973 180.398 179.378 175.672 177.83 170.94C176.842 168.031 175.513 165.215 173.056 163.261C168.864 160.35 159.258 154.446 154.335 154.695C154.253 153.813 153.843 152.904 153.168 152.317C154.655 149.781 148.709 148.126 148.29 148.42C148.559 139.948 144.575 132.59 135.791 130.902C127.921 129.262 116.727 128.986 112.495 137.214C112.029 137.162 107.274 137.137 106.813 137.188C106.098 136.282 98.2409 144.872 101.461 147.862C72.6712 160.603 56.3012 159.082 48.3326 194.9C47.2553 198.264 47.1768 201.946 46.0393 205.236C41.9921 214.69 38.7095 224.757 37.8926 235.044C35.9195 235.549 35.6925 239.03 37.978 239.533C38.851 239.726 39.581 239.989 40.2176 240.487C39.72 248.917 41.758 268.174 43.0421 268.115C45.6605 276.451 57.3397 278.804 65.6082 275.874C64.1828 278.557 65.6082 280.243 65.6082 281.677C95.3604 282.803 127.891 282.154 157.635 283.699C161.44 283.645 165.442 284.634 169.195 284.064C171.483 283.515 171.487 279.916 169.166 279.47L179.309 277.266C179.082 277.181 183.49 274.248 186.822 268.767C189.923 262.636 187.812 255.235 189.217 248.565C200.192 247.667 211.347 247.283 222.201 245.424C223.681 249.854 230.088 244.556 232.124 242.425C232.121 242.422 232.119 242.419 232.116 242.415C233.102 242.146 233.892 241.222 233.919 240.128C234.61 239.14 234.755 237.747 234.092 236.793C237.13 219.257 241.761 201.353 243.435 183.653C244.026 183.522 244.584 183.263 245.056 182.863L245.018 182.825C245.818 181.932 245.974 180.391 244.639 179.632C243.563 179.02 242.664 179.21 241.496 179.325Z" fill="white"/>
<path fill-rule="evenodd" clip-rule="evenodd" d="M113.043 135.303C113.94 133.049 116.97 133.925 116.632 136.293C116.43 137.711 115.653 139.209 114.956 140.452C114.388 141.463 113.74 142.451 112.862 143.209C114.426 144.668 116.048 146.074 117.712 147.409C119.528 148.865 121.437 150.208 123.411 151.442C125.141 152.524 126.95 153.483 128.581 154.717C130.098 155.865 131.479 157.246 132.182 159.048C132.931 160.967 132.606 162.949 132.054 164.867L131.991 165.084C131.428 166.984 130.452 169.274 131.805 171.064C132.493 171.975 133.494 172.621 134.358 173.349C135.127 173.997 135.848 174.701 136.509 175.458C137.951 177.107 139.124 178.962 139.864 181.03L139.93 181.217C140.564 183.047 141.028 185.29 140.171 187.086C139.925 187.601 139.132 187.434 138.994 186.933C138.682 185.796 138.699 184.606 138.438 183.454C138.166 182.256 137.714 181.118 137.123 180.042C135.981 177.96 134.434 176.182 132.605 174.678L132.058 174.233C130.632 173.062 129.322 171.82 129.032 169.882C128.723 167.809 129.553 165.834 130.087 163.872C130.459 162.505 130.58 161.194 130.178 159.958C129.687 160.76 129.017 161.522 128.487 162.201C127.431 163.554 126.366 164.898 125.303 166.245C124.213 167.627 123.15 169.03 122.138 170.469C121.685 171.113 121.237 171.761 120.791 172.41C120.455 172.897 119.987 173.384 119.621 173.881C119.71 174.147 119.703 174.453 119.542 174.671C117.602 177.294 114.841 171.821 114.121 170.439C112.655 167.623 111.564 164.631 110.092 161.816C108.568 158.898 106.832 156.057 104.898 153.393C103.728 151.781 102.416 150.268 101.346 148.605C98.8236 150.893 95.5051 152.426 92.4569 153.817C89.1078 155.345 85.6284 156.593 82.1946 157.918L81.1803 158.312C75.2638 160.622 69.2027 163.16 64.285 167.263C58.5062 172.084 55.0875 178.804 52.5423 185.763C49.6125 193.775 47.1886 202.002 44.9291 210.224C43.7728 214.431 42.6757 218.657 41.6443 222.897C40.7354 226.632 39.982 230.404 38.9299 234.1C41.0637 234.025 43.4973 234.851 45.3191 235.09C53.6217 236.177 61.8125 237.91 69.6512 240.911C70.6194 241.281 70.8996 242.249 70.6887 243.033C71.2471 242.875 71.8051 242.715 72.3634 242.558C71.7517 241.621 72.0437 239.944 72.0918 238.905L72.0947 238.833C72.1441 237.448 72.2944 236.062 72.3917 234.68C72.5772 232.044 72.8187 229.428 73.1397 226.808L73.2216 226.153C73.5854 223.302 73.8544 220.435 74.2513 217.589L74.2982 217.263C74.1079 216.535 73.8863 215.816 73.6537 215.1C73.0338 213.192 72.1589 211.397 71.3922 209.55C71.3018 209.332 71.6115 209.207 71.7563 209.338C73.0547 210.506 74.0861 211.989 74.9147 213.539C74.9291 213.466 74.9418 213.393 74.9568 213.319L75.0513 212.854C75.2845 211.718 75.5681 210.524 76.2643 209.603C76.3384 209.505 76.4851 209.485 76.5552 209.603C77.2215 210.731 77.2961 212.159 77.3986 213.443C77.5146 214.895 77.5291 216.365 77.5087 217.821C77.4687 220.667 77.2682 223.52 77.1085 226.361C76.9518 229.153 76.6441 231.909 76.2476 234.673L76.1722 235.191C75.9783 236.507 75.8196 237.839 75.5639 239.146L75.4917 239.501C75.355 240.149 75.2709 241.063 74.9988 241.822C81.9998 239.868 89.0115 237.959 96.0366 236.084C101.114 234.729 106.197 233.393 111.277 232.049C111.545 231.566 111.879 231.115 112.296 230.711C113.668 229.381 115.487 228.788 117.156 229.812C117.291 229.895 117.303 230.108 117.156 230.188C116.836 230.363 116.516 230.542 116.201 230.729L119.252 229.903C121.532 229.284 123.84 228.512 126.174 228.081C130.472 225.959 135.096 224.423 139.624 222.905L140.157 222.724C142.476 221.933 144.874 221.048 147.27 220.61C149.024 220.289 151.082 220.676 151.787 222.473C152.68 223.062 153.52 223.754 154.331 224.434C154.917 224.925 155.479 225.448 156.05 225.957L156.155 226.05C156.622 226.455 156.992 226.726 157.107 227.372C157.166 227.705 156.954 228.156 156.543 228.111C155.286 227.977 154.264 226.519 153.411 225.648C152.752 224.975 152.088 224.28 151.487 223.54C151.137 223.731 150.656 223.697 150.433 223.274C149.276 221.083 146.107 222.601 144.354 223.121L141.842 223.865C140.586 224.237 139.33 224.611 138.077 224.992C134.632 226.038 131.205 227.21 127.729 228.171C128.04 228.513 127.997 229.121 127.406 229.352C124.686 230.42 121.701 230.972 118.874 231.705C117.09 232.168 115.306 232.634 113.523 233.103C113.218 233.598 112.998 234.159 112.905 234.811C112.565 237.21 113.221 239.978 113.86 242.298L113.957 242.644C114.482 244.51 115.255 246.796 116.864 247.974C117.257 248.262 117.757 248.461 118.261 248.507C121.41 246.885 124.559 245.264 127.71 243.645C128.294 243.345 128.834 243.751 128.965 244.234C130.076 244.051 131.184 243.764 132.194 243.421C133.89 242.845 135.215 241.746 136.805 240.985C139.883 239.515 143.025 241.321 145.781 242.694L146.416 243.007C147.651 243.606 150.222 244.759 150.814 243.118C151.388 241.531 149.575 239.836 148.404 239.121C147.009 238.27 145.383 237.814 143.806 237.435C142.905 237.218 141.994 237.041 141.077 236.912C140.036 236.765 138.962 236.787 137.96 236.45C137.463 236.282 137.386 235.492 137.96 235.361C139.502 235.01 141.342 235.393 142.951 235.784L143.792 235.991C145.413 236.389 147.05 236.889 148.527 237.683C149.6 238.26 150.734 239.137 151.474 240.211C152.117 239.613 152.917 239.634 153.75 239.855L154.203 239.981C154.95 240.188 155.555 240.331 156.282 240.187C156.379 239.658 156.478 239.129 156.583 238.6C157.619 233.397 158.755 228.215 160.008 223.061C162.171 214.169 164.672 205.376 167.493 196.673L167.776 195.803C168.426 193.812 168.95 191.643 169.999 189.814C170.991 188.085 172.58 187.089 174.468 186.561C176.61 185.963 178.862 185.65 181.048 185.245C181.535 185.155 182.024 185.07 182.512 184.981C182.1 184.236 181.792 183.391 181.515 182.742L181.466 182.629C180.87 181.271 180.335 179.887 179.818 178.497L179.432 177.451C178.499 174.934 177.536 172.458 176.224 170.104C174.843 167.626 173.011 165.6 170.728 163.923C166.072 160.504 160.46 158.761 155.944 155.107C155.759 154.957 155.996 154.701 156.184 154.796C159.233 156.329 162.525 157.371 165.696 158.619L166.322 158.866C168.829 159.86 171.375 160.942 173.544 162.552C175.963 164.346 177.869 166.575 179.301 169.226C180.712 171.839 181.615 174.763 182.61 177.554L182.877 178.297C183.278 179.412 183.693 180.524 184.168 181.609C184.546 182.47 185.25 183.454 185.57 184.438C186.446 184.286 187.321 184.134 188.198 183.987C207.184 180.816 226.382 178.953 245.623 178.408C246.375 178.386 246.765 179.105 246.654 179.762C244.807 190.685 243.166 201.645 241.366 212.576C240.58 217.347 239.778 222.114 238.958 226.879C238.543 229.293 238.062 231.698 237.669 234.115C237.351 236.068 237.12 238.035 236.575 239.943C236.085 241.653 235.334 243.302 234.101 244.606C232.772 246.013 230.917 246.693 229.049 247.015C224.308 247.831 219.445 248.165 214.665 248.708L189.219 251.604C189.591 254.986 189.619 258.314 189.448 261.735L189.351 263.602C189.271 265.104 189.176 266.609 188.961 268.095C188.69 269.96 187.837 271.539 186.581 272.932C185.428 274.211 184.027 275.302 182.664 276.348C181.249 277.434 179.788 278.482 178.124 279.154L177.909 279.239C176.449 279.809 173.712 280.692 171.718 280.369C171.978 281.676 172.483 283.081 172.035 284.374C171.828 284.975 171.043 285.274 170.562 284.763C169.61 283.751 169.535 282.413 169.31 281.092C169.075 279.718 168.873 278.338 168.693 276.955C168.345 274.281 168.074 271.583 167.992 268.887C167.907 266.118 167.94 263.345 168.089 260.579C168.165 259.158 168.261 257.738 168.441 256.327C168.518 255.725 168.596 255.123 168.686 254.522C168.719 254.303 168.755 254.085 168.794 253.868L166.51 254.126C163.008 254.517 159.504 254.87 155.977 254.925C155.56 254.931 155.238 254.741 155.028 254.464C154.805 254.829 154.415 255.089 153.857 255.087C148.932 255.069 144.345 253.458 139.866 251.559C137.608 250.602 135.385 249.565 133.123 248.616C131.012 247.73 128.756 247.098 126.696 246.1L121.283 248.94C121.244 249.08 121.193 249.212 121.139 249.322C120.786 250.042 120.091 250.432 119.382 250.726C118.701 251.009 117.995 251.097 117.308 251.026C113.203 253.178 109.097 255.327 104.988 257.472L100.879 259.615C92.6908 263.88 84.5352 268.215 76.2958 272.38L75.6892 272.685C72.8432 274.113 69.7873 275.56 66.629 276.64C66.5728 277.439 66.6083 278.217 66.6753 279.064L66.6914 279.248C66.7856 280.248 66.9875 281.502 66.1853 282.214C65.7681 282.584 65.0227 282.586 64.739 282.027C64.2241 281.015 64.6864 279.418 64.8495 278.318C64.9074 277.927 64.9779 277.525 65.0823 277.135C61.4616 278.213 57.7313 278.736 54.0467 278.13C50.4594 277.541 47.681 275.281 45.4412 272.515C43.0773 269.597 41.3975 266.196 40.4963 262.551C39.4706 258.402 39.4036 254.118 39.4277 249.869C39.4532 245.344 39.6206 240.797 40.1707 236.303C39.5679 236.161 38.8995 236.038 38.2904 236.081C37.9887 236.563 37.4035 236.767 36.8747 236.704C35.7248 237.973 38.6415 239.269 39.5737 239.594C39.8973 239.707 39.8627 240.233 39.4894 240.217L39.2542 240.206C37.8139 240.129 36.3259 239.883 35.4791 238.544C34.8005 237.471 35.0044 236.199 35.8133 235.324C36.3476 230.27 37.6249 225.349 38.8137 220.419C39.9803 215.58 41.2777 210.772 42.6529 205.989L43.2694 203.848C45.4345 196.347 47.6976 188.786 50.6842 181.584C52.1756 177.988 53.8936 174.457 56.2224 171.322C58.3932 168.398 60.956 165.897 63.902 163.761C69.3939 159.778 75.838 157.371 82.1697 155.078L82.4532 154.976C85.7344 153.788 89.0075 152.587 92.2513 151.3C95.1201 150.162 97.8685 148.72 100.724 147.565C100.631 147.397 100.541 147.226 100.455 147.054L100.402 147.099C100.393 147.106 100.384 147.113 100.375 147.119C100.087 147.318 99.6647 147.22 99.4281 146.997C98.76 146.366 98.9862 145.666 99.4321 145.012L99.4902 144.929C100.036 144.165 100.522 143.356 101.026 142.564L101.341 142.069C102.186 140.745 103.074 139.413 104.201 138.319C104.723 137.813 105.294 137.433 105.899 137.151C105.847 137.041 106.301 136.818 106.43 136.93C108.348 136.228 110.554 136.375 112.645 136.569M187.988 251.744L185.322 252.048C182.388 252.382 179.454 252.704 176.519 253.024L170.145 253.717C170.128 254.081 170.084 254.436 170.076 254.711C170.035 256.126 170.004 257.542 169.974 258.958C169.915 261.796 169.98 264.637 170.167 267.469C170.348 270.214 170.586 272.959 170.957 275.685L171.032 276.23L171.076 276.517C171.379 276.546 171.676 276.689 171.923 276.985C172.462 277.629 174.414 277.003 175.177 276.731C176.431 276.285 177.611 275.531 178.701 274.775C179.765 274.036 180.723 273.175 181.644 272.268L182.397 271.523C183.146 270.778 183.896 269.984 184.355 269.047C184.978 267.777 185.058 266.217 185.241 264.833C185.466 263.131 185.733 261.429 186.016 259.735M110.589 233.876L110.312 233.949C100.266 236.62 90.2351 239.369 80.1582 241.921C75.1715 243.185 70.1611 244.356 65.1682 245.595L64.3598 245.798C60.421 246.794 56.4348 247.992 53.4185 250.85C53.3072 250.955 53.1456 250.794 53.2504 250.682C56.5011 247.22 61.1245 245.755 65.5637 244.484C66.3842 244.249 67.2058 244.02 68.0266 243.786C61.9894 241.633 55.857 239.76 49.583 238.424C47.9674 238.08 46.333 237.828 44.7187 237.482C43.5929 237.241 42.4934 236.893 41.3795 236.604L40.5033 236.383L40.4917 239.154C40.4771 243.077 40.4841 246.998 40.6842 250.921L40.722 251.648C40.9555 256.014 41.3199 260.47 42.8687 264.587C44.1272 267.932 46.1332 271.084 48.7565 273.52C50.0839 274.753 51.511 275.713 53.2751 276.187C54.913 276.627 56.6292 276.678 58.313 276.561C66.3895 275.997 73.5789 271.608 80.5947 267.974C92.0701 262.03 103.547 256.09 115.034 250.169C114.723 249.956 114.431 249.711 114.165 249.436C112.625 247.845 111.812 245.666 111.278 243.556C110.71 241.311 110.371 238.904 110.331 236.585M125.205 252.463C125.306 252.408 125.424 252.477 125.428 252.591C125.464 253.469 124.979 254.335 124.617 255.125L124.579 255.21C124.138 256.189 123.657 257.155 123.158 258.106C122.162 260.007 121.127 261.887 120.046 263.74C117.874 267.468 115.459 271.04 112.606 274.286C111.961 275.02 110.901 274.079 111.315 273.29C113.309 269.483 115.634 265.889 118.027 262.326C119.225 260.543 120.423 258.757 121.632 256.981C122.137 256.24 122.648 255.502 123.173 254.775L123.49 254.34M244.35 180.588C234.269 180.892 224.2 181.55 214.167 182.581C204.836 183.539 195.539 184.815 186.295 186.406C184.364 186.738 182.436 187.084 180.51 187.443L179.354 187.661C177.428 188.026 175.075 188.176 173.36 189.206C171.552 190.291 171.063 192.559 170.461 194.43C169.754 196.63 169.064 198.836 168.394 201.047C165.73 209.827 163.297 218.683 161.126 227.598C160.049 232.023 159.093 236.473 158.086 240.914C157.191 244.86 156.203 248.761 155.172 252.668C155.299 252.569 155.455 252.494 155.643 252.453C160.766 251.363 165.995 250.889 171.194 250.287L171.697 250.228C177.076 249.595 182.455 248.967 187.836 248.362L223.469 244.353C225.57 244.117 227.821 244.085 229.866 243.521C233.343 242.561 234.158 238.672 234.742 235.575L234.759 235.482C236.518 226.125 237.918 216.686 239.559 207.305M156.001 241.79C154.617 241.699 152.724 240.432 151.674 240.522C152.225 241.447 152.474 242.502 152.157 243.629C151.273 246.763 147.276 245.141 145.351 244.184C143.773 243.398 142.249 242.437 140.501 242.069C138.522 241.653 137.181 242.44 135.508 243.348C134.135 244.093 132.639 244.629 131.1 244.906C130.282 245.053 129.505 245.069 128.729 245.012C128.683 245.05 128.63 245.085 128.57 245.116L128.16 245.332C130.015 245.417 131.905 245.989 133.631 246.514C135.42 247.057 137.176 247.712 138.923 248.381L140.642 249.042C144.881 250.666 149.269 252.208 153.857 252.195C154.187 252.194 154.457 252.285 154.67 252.434M148.261 231.968C149.628 231.801 150.889 231.98 151.981 232.87C153.298 233.943 154.183 235.723 156.076 235.84C156.628 235.874 156.757 236.651 156.208 236.813C154.799 237.23 153.657 236.468 152.697 235.477L152.052 234.803C151.103 233.82 150.228 233.06 148.617 233.118C146.893 233.181 145.166 233.58 143.453 233.783C141.512 234.012 139.572 234.208 137.625 234.377C137.534 234.385 137.519 234.242 137.604 234.221L139.784 233.678M146.942 226.379L147.167 226.356C149.152 226.163 150.967 226.156 152.739 227.224L153.079 227.43C154.677 228.401 156.417 229.546 157.416 231.119C157.579 231.377 157.309 231.68 157.036 231.614C155.115 231.153 153.711 229.743 152.096 228.688C150.283 227.504 148.411 227.699 146.344 227.883C144.343 228.061 142.343 228.306 140.361 228.64C138.499 228.953 136.631 229.448 134.751 229.605L134.751 229.602C134.536 229.601 134.414 229.278 134.633 229.169C136.541 228.216 138.752 227.764 140.828 227.329M207.23 206.756C207.038 205.838 208.167 205.412 208.69 206.14L208.801 206.294C209.931 207.843 211.566 209.786 211.483 211.756C212.476 211.778 213.506 212.382 213.893 213.279C214.072 213.694 214.132 214.185 214.093 214.694C214.996 214.764 215.981 215.357 216.533 215.935C217.448 216.892 217.52 218.245 216.863 219.363C215.432 221.801 212.306 222.688 209.666 222.886L209.572 222.893C206.846 223.081 202.918 223.03 201.048 220.69C199.245 218.433 201.238 216.606 203.282 215.614C202.75 215.128 202.474 214.431 202.733 213.696C203.188 212.405 204.794 211.906 205.701 211.008C206.808 209.913 207.539 208.411 207.247 206.842M208.728 208.741C208.428 210.048 207.689 211.243 206.661 212.19C206.267 212.553 205.837 212.875 205.38 213.152L205.325 213.184C204.919 213.412 203.922 213.839 203.998 214.35C204.077 214.876 205.702 215.698 206.145 215.698C206.246 215.698 206.303 215.856 206.2 215.901C205.397 216.256 204.696 216.408 203.912 216.033C203.387 216.569 202.878 217.123 202.373 217.672C201.481 218.644 201.786 219.671 202.841 220.394C204.535 221.557 207.109 221.529 209.086 221.444C211.075 221.359 213.202 220.916 214.755 219.59L214.823 219.531C215.668 218.78 216.439 217.506 215.146 216.783C214.639 216.499 214.092 216.516 213.611 216.378C213.161 217.261 212.431 217.967 211.541 218.104C210.821 218.214 210.325 217.309 210.98 216.876L211.127 216.784C211.949 216.259 212.651 215.451 212.632 214.398C212.62 213.667 211.599 212.743 210.934 213.43L210.904 213.463C210.348 214.09 209.368 213.3 209.734 212.605L209.751 212.573M78.9848 172.393C78.9823 172.236 79.2031 172.177 79.2802 172.313C80.5715 174.586 81.2465 177.371 81.9343 179.875C82.6548 182.498 83.2364 185.148 83.7589 187.817C84.8171 193.221 85.381 198.594 85.4192 204.103C85.4245 204.889 84.1438 205.098 84.0185 204.292C83.1867 198.934 82.3898 193.571 81.5517 188.214C81.13 185.52 80.6393 182.837 80.1696 180.151M91.7684 176.351C91.6734 176.038 92.1293 175.933 92.2459 176.22C94.8373 182.583 95.7149 189.795 94.0512 196.508C93.7966 197.535 92.293 197.09 92.485 196.076M125.195 170.697C125.181 170.462 125.486 170.425 125.601 170.587C126.828 172.318 127.338 174.635 129.492 175.53C130.568 175.976 131.778 175.899 132.728 176.653C133.364 177.157 133.851 177.954 133.374 178.718C133.22 178.965 132.79 179.088 132.581 178.82C132.276 178.429 132.115 177.961 131.701 177.668C131.117 177.255 130.33 177.23 129.661 177.035C128.795 176.784 128.032 176.345 127.407 175.692M145.708 141.83C145.835 141.765 145.956 141.807 146.037 141.916C146.153 142.072 146.139 142.224 145.997 142.331C146.186 142.717 146.409 143.686 146.441 143.827C146.571 144.398 146.708 144.966 146.852 145.534C147.142 146.679 147.397 147.833 147.687 148.978C147.995 150.192 148.362 151.393 148.771 152.577C148.797 152.653 148.826 152.732 148.856 152.811L148.903 152.931L148.914 152.913C148.997 152.782 149.17 152.873 149.15 153.012C149.131 153.138 149.105 153.264 149.083 153.391L149.126 153.504C149.393 154.223 149.576 154.981 149.086 155.615C148.903 155.853 148.701 155.993 148.45 156.035C148.046 157.364 147.541 158.669 146.999 159.922L146.841 160.288C146.044 162.116 145.195 163.92 143.926 165.477C142.542 167.176 140.637 168.336 139.431 170.198C138.87 171.064 138.479 171.975 138.163 172.953L138.043 173.324C137.818 174.016 137.559 174.687 136.91 175.093C136.703 175.222 136.393 175.181 136.226 175.004C134.896 173.596 136.288 170.968 137.091 169.605C138.206 167.709 139.82 166.497 141.435 165.067C143.177 163.525 144.288 161.463 145.363 159.432C146.021 158.188 146.657 156.916 147.326 155.667C146.627 155.048 146.403 153.821 146.166 152.967L146.145 152.891C145.753 151.524 145.442 150.122 145.246 148.714C145.057 147.36 144.978 146.025 145.028 144.664L145.042 144.317M148.307 148.274C148.153 148.063 148.409 147.823 148.62 147.867C149.909 148.133 151.168 148.913 152.325 149.544L152.448 149.611C153.371 150.109 154.3 150.719 154.785 151.687C155.312 152.738 155.268 153.949 155.196 155.091L155.19 155.198C155.102 156.569 155.087 157.992 154.798 159.338C154.649 160.026 154.026 160.22 153.493 160.057C152.858 162.061 151.077 163.537 149.775 165.118C148.116 167.133 148.428 169.854 148.602 172.282C148.672 173.265 147.45 173.544 146.821 173.02L145.37 171.814C145.129 171.613 144.888 171.412 144.647 171.209C144.441 171.036 144.237 170.861 144.034 170.684L143.732 170.417C143.598 170.297 143.006 169.636 142.833 169.608C142.414 169.542 141.418 170.646 141.077 170.993L141.034 171.036C140.393 171.665 139.813 172.342 139.273 173.06C139.174 173.192 138.98 173.083 139.051 172.93C139.535 171.894 140.097 170.903 140.765 169.975L140.9 169.791C141.344 169.192 141.94 168.134 142.725 167.957C143.682 167.741 144.638 168.702 145.335 169.235L145.379 169.269C145.711 169.518 146.038 169.771 146.365 170.026C146.331 168.218 146.559 166.392 147.492 164.835C148.15 163.736 149.135 162.923 149.978 161.979C150.917 160.928 151.407 159.636 152.257 158.542C152.366 158.401 152.517 158.325 152.68 158.301C152.713 157.421 152.843 156.532 152.943 155.662L152.972 155.401C153.073 154.455 153.312 153.3 152.849 152.414C152.412 151.578 151.409 150.987 150.666 150.42L150.059 149.949M106.494 138.274C106.107 138.498 105.744 138.777 105.415 139.126C104.38 140.225 103.639 141.592 102.919 142.908C102.531 143.616 102.157 144.332 101.766 145.039C101.596 145.347 101.421 145.651 101.244 145.955C101.162 146.095 100.92 146.373 100.799 146.544C100.933 146.732 101.071 146.916 101.212 147.099C101.266 147.169 104.98 151.216 106.275 152.8C108.258 155.227 110.03 157.79 111.545 160.533C113.028 163.22 114.158 166.064 115.532 168.803C116.22 170.174 116.988 171.535 117.967 172.721C118.005 172.768 118.045 172.812 118.084 172.857C118.457 171.847 119.415 170.766 119.885 170.145L119.929 170.086C120.996 168.648 122.123 167.253 123.274 165.881C124.325 164.629 125.403 163.404 126.507 162.199L126.922 161.748C127.691 160.916 128.668 159.673 129.795 159.079C129.674 158.863 129.534 158.651 129.374 158.441C128.319 157.061 126.827 156.06 125.356 155.157L124.401 154.576C120.804 152.383 117.262 150.089 114.139 147.239C112.487 145.731 110.857 144.152 109.468 142.393L108.977 141.771M112.497 137.188C110.812 137.329 108.993 137.296 107.436 137.845C108.82 139.154 110.136 140.567 111.487 141.898C111.607 140.998 111.853 140.109 112.062 139.231" fill="black"/>
<path fill-rule="evenodd" clip-rule="evenodd" d="M129.726 53.9492C141.722 53.9492 154.13 63.2512 158.527 69.187C162.224 74.1775 164.215 96.7446 164.215 111.996C164.215 115.185 165.974 121.198 165.461 124.249C163.579 135.429 155.382 144.806 139.157 144.806C122.932 144.806 111.298 138.372 99.2388 121.098C93.3874 121.098 90.5515 116.609 90.5104 109.525C90.4692 102.44 96.1585 99.863 96.1585 99.863C96.1585 99.863 94.1299 71.9058 99.2388 64.6271C104.348 57.3483 117.731 53.9492 129.726 53.9492Z" fill="white"/>
<path fill-rule="evenodd" clip-rule="evenodd" d="M124.679 49.9959C132.253 49.2287 139.675 49.8733 147.139 51.2072C147.709 51.3105 148.033 51.6848 148.153 52.1348C151.669 52.2954 155.188 52.5535 158.699 52.7458C159.973 52.8156 160.696 54.075 160.115 55.2123C159.999 55.4382 159.878 55.658 159.756 55.8778L159.91 55.827C160.966 55.4881 162.107 55.3209 163.136 55.859C164.446 56.5438 164.959 58.0547 164.67 59.4454C164.596 59.8005 164.471 60.1407 164.33 60.4728C164.617 60.4538 164.907 60.4601 165.194 60.4981C166.723 60.701 167.86 61.874 167.94 63.4359C168.059 65.7944 166.54 68.1871 164.75 69.8755C165.01 70.4105 165.109 71.0403 165.001 71.6786C164.786 72.9403 163.857 73.6959 162.78 74.1888C163.229 75.6156 163.441 77.1073 163.316 78.6318C163.274 79.1407 162.829 79.5611 162.36 79.6642C164.11 84.486 164.996 89.6628 165.633 94.7071C166.088 98.296 166.312 101.906 166.339 105.522C166.352 107.154 166.325 108.789 166.257 110.422L166.229 111.034C166.145 112.799 166.14 114.652 165.823 116.398C166.905 118.239 167.34 120.524 167.524 122.586C167.752 125.139 167.391 127.773 166.586 130.201C163.548 139.378 154.379 145.169 145.17 146.674C136.645 148.067 126.781 146.192 121.8 138.446C121.721 138.323 121.888 138.222 121.985 138.303C125.55 141.202 129.684 142.495 134.176 143.125C141.942 144.212 150.671 142.369 156.904 137.482C159.895 135.136 162.052 131.721 163.001 128.045C163.485 126.167 163.652 124.207 163.461 122.274C163.267 120.312 162.399 118.638 161.852 116.785C161.668 116.159 161.862 115.578 162.245 115.164C162.352 113.659 162.606 112.141 162.703 110.641C162.811 108.935 162.876 107.23 162.9 105.522C162.944 101.98 162.796 98.4311 162.498 94.9038C161.953 88.4448 160.506 82.1425 159.657 75.7384C159.342 76.0205 158.891 76.1364 158.419 75.8899L158.37 75.8631L158.112 75.7154C158.097 75.7154 158.081 75.7175 158.066 75.7194C156.302 75.8908 154.472 75.6456 152.782 75.1191C151.013 74.5698 149.372 73.7244 147.906 72.5979C147.627 74.0117 147.511 75.4404 147.509 76.8818C147.507 77.7822 146.554 78.2494 145.797 77.8648C142.445 76.1611 139.242 74.1979 136.202 71.9914C135.847 73.8111 135.492 75.6306 135.135 77.4524C134.997 78.1543 134.104 78.4375 133.531 78.1036C131.254 76.7782 129.287 75.0433 127.685 72.9803C127.366 73.5919 127.045 74.2035 126.722 74.8137L126.236 75.7278C125.757 76.6261 125.114 77.6196 124.064 77.9068C122.953 78.2112 122.025 77.4907 121.652 76.4845C121.538 76.1719 121.432 75.8504 121.335 75.527C120.388 77.6894 119.319 79.8029 118.111 81.8192C116.298 84.8434 114.122 87.5381 111.952 90.3025C111.293 91.1418 110.165 90.3406 110.074 89.525C110.021 89.0452 109.977 88.5633 109.939 88.0834C108.675 90.6356 107.355 93.164 105.918 95.6191L106.124 96.4258V96.4258C106.717 98.8094 107.209 101.21 107.745 103.606C107.918 104.379 107.507 105.485 106.604 105.616C105.525 105.774 104.505 106.325 103.4 105.946C102.195 105.532 101.957 104.49 101.388 103.503C101.274 103.306 101.142 103.125 101 102.954L100.964 103V103C100.876 103.117 100.664 102.99 100.717 102.857L100.779 102.703V102.703C100.29 102.184 99.7056 101.751 99.1679 101.286C97.8902 101.07 96.4529 101.306 95.5726 101.826C93.5677 103.009 92.6467 105.448 92.6277 107.691C92.6045 110.316 93.4177 113.266 94.7909 115.51C95.3953 116.498 96.2235 117.389 97.3177 117.827C98.4038 118.262 99.5805 118.127 100.685 118.537C101.416 118.81 101.866 119.621 101.425 120.357C101.395 120.407 101.362 120.454 101.33 120.503L101.658 120.939C101.884 121.241 102.12 121.565 102.34 121.902C102.902 122.548 103.493 123.172 104.066 123.808C105.124 124.981 106.151 126.186 107.192 127.375C108.175 128.498 109.214 129.552 110.285 130.59C111.297 131.573 112.561 132.399 113.49 133.448C114.394 134.471 114.64 136.256 113.152 136.848C111.507 137.505 110.05 135.966 108.942 134.94L108.895 134.897C106.865 133.028 105.031 130.892 103.575 128.54C102.132 129.522 100.046 129.616 98.6091 128.634C97.8532 128.117 97.2733 127.248 96.9915 126.304C96.7257 126.363 96.4601 126.398 96.2011 126.394C96.0678 126.472 95.9341 126.547 95.7988 126.617C94.7275 127.175 93.4115 126.926 92.9214 125.74C92.4751 124.663 92.935 123.44 93.337 122.403L93.42 122.189C93.6481 121.597 93.8996 120.953 94.2122 120.346C93.3418 119.691 92.5979 118.877 91.9686 117.952C89.8538 114.834 88.7974 110.275 89.2643 106.556C89.5453 104.311 90.5993 101.986 92.3254 100.473L92.2622 100.308V100.308C91.7784 99.0801 91.3388 97.8477 91.0538 96.5503C90.72 95.0328 90.5571 93.4603 90.4094 91.9154C90.0967 88.6521 90.1812 85.3149 90.5974 82.0643C91.3791 75.9457 93.3608 69.9392 96.8784 64.8477C95.881 63.6534 95.0911 62.2479 95.5029 60.6313C95.6911 59.8892 96.1198 59.1857 96.7665 58.7606C97.1233 58.5262 97.5481 58.4903 97.9052 58.2959L98.0125 58.2367C98.1694 58.1452 98.0494 58.1549 97.9559 57.7294C97.5862 56.03 97.8925 54.388 99.7622 53.8237C101.522 53.2932 103.187 54.4197 104.228 55.7618C106.954 53.8277 110.545 52.8156 113.704 51.9554C117.295 50.9808 120.98 50.3723 124.679 49.9959ZM95.2409 106.997C95.228 105.613 96.5399 104.759 97.831 104.985C98.6979 105.136 99.4211 105.654 100.1 106.189L100.431 106.451C101.258 107.1 102.208 107.8 102.7 108.72C103.423 110.077 101.896 111.903 100.47 110.952C99.4915 110.296 98.8645 109.245 98.2228 108.269L98.1563 108.168C97.8648 107.731 97.6092 107.266 97.2097 106.915L97.1234 106.839C96.9921 106.727 96.8511 106.625 96.6815 106.577C96.3544 106.483 95.7485 106.614 95.6042 107.004L95.5913 107.044C95.5385 107.24 95.243 107.198 95.2409 106.997Z" fill="black"/>
<path fill-rule="evenodd" clip-rule="evenodd" d="M149.973 126.158C148.539 126.722 146.845 126.855 145.365 126.375C143.95 125.915 142.665 124.893 141.887 123.607C141.195 122.461 140.905 121.102 141.315 119.747C141.334 119.682 141.398 119.64 141.459 119.624C141.794 119.929 142.001 120.232 142.208 120.533C142.556 121.041 142.905 121.544 143.385 121.979C144.082 122.611 145.022 123.124 145.955 123.294C146.868 123.46 147.803 123.313 148.62 122.876C149.118 122.61 149.52 122.254 149.918 121.898C150.351 121.509 150.778 121.114 151.375 120.895C151.854 120.719 152.356 120.867 152.742 121.162C153.157 121.478 153.456 121.973 153.439 122.49C153.414 123.292 153.063 123.961 152.554 124.513C151.865 125.259 150.892 125.797 149.973 126.158ZM148.271 106.175C149.866 107.145 152.297 109.407 150.581 111.812C148.561 113.933 145.652 111.502 144.219 110.402C142.89 109.55 141.396 111.742 142.629 112.737C152.987 120.408 157.19 106.429 149.078 105.035C148.185 104.881 147.853 105.875 148.271 106.175ZM131.491 92.7335C133.665 92.6296 135.581 93.6064 137.653 94.0503C139.568 94.4607 141.455 94.2143 143.317 93.6922C146.339 92.8449 147.589 97.4735 144.608 98.3755C142.437 99.0324 140.151 99.0781 137.923 98.7395C135.944 98.4385 134.285 97.4748 132.398 96.9136C130.779 96.4323 128.874 96.6323 127.164 96.859L126.5 96.9483C125.514 97.0812 124.522 97.2146 123.545 97.4076C122.697 97.5752 121.851 97.8818 120.986 97.9173C120.888 97.9216 120.805 97.7939 120.867 97.7087C121.871 96.3285 123.808 95.2394 125.349 94.513L125.454 94.4641C127.355 93.577 129.373 92.8346 131.491 92.7335ZM130.694 102.911L130.693 102.864C130.696 101.516 131.481 98.4387 133.42 98.4387C134.632 98.4387 135.368 100.533 135.495 102.692L135.499 102.78C135.556 104.122 135.187 107.056 133.42 107.056C131.635 107.056 130.712 104.277 130.694 102.911V102.911ZM159.248 102.911L159.248 102.864C159.245 101.516 158.46 98.4387 156.521 98.4387C155.34 98.4387 154.611 100.43 154.457 102.53L154.446 102.692C154.37 103.989 154.714 107.056 156.521 107.056C158.307 107.056 159.229 104.277 159.248 102.911V102.911ZM159.218 91.092L159.357 91.0951C161.623 91.1737 163.954 92.5168 164.56 94.773C164.591 94.8901 164.447 94.9689 164.361 94.8886C162.497 93.1431 159.991 94.811 158.125 95.6852L157.439 96.002C155.034 97.1217 152.297 98.4381 149.626 97.6036C148.358 97.2073 147.552 95.9033 147.914 94.5862C148.236 93.4142 149.65 92.4293 150.875 92.8523L150.93 92.8725C151.925 93.2533 153.149 92.8675 154.176 92.4872L155.021 92.17C156.378 91.6547 157.742 91.0782 159.218 91.092V91.092Z" fill="black"/>
</svg>
