<svg width="512" height="691" viewBox="0 0 512 691" fill="none" xmlns="http://www.w3.org/2000/svg">
<path fill-rule="evenodd" clip-rule="evenodd" d="M401.45 420.968C400.034 417.08 402.102 413.201 403.249 409.44C407.324 396.395 411.773 383.349 418.067 371.183C420.452 367.114 416.529 362.122 411.984 363.269C404.202 364.359 396.178 363.491 388.384 363.01C385.533 355.634 377.924 352.575 371.936 348.327C365.141 344.085 358.531 339.213 351.464 335.495C351.071 331.981 346.811 331.11 344.206 333.624C337.051 329.173 328.471 329.999 320.801 327.083C314.973 317.662 314.536 307.756 312.993 298.667C312.321 294.705 313.035 290.883 310.328 287.351C301.235 274.561 265.307 269.015 252.06 276.594C244.93 272.147 244.758 280.202 243.625 285.173C242.367 287.66 241.686 290.477 241.896 293.445C234.237 309.444 216.714 316.677 201.021 322.537C199.052 320.642 196.238 320.881 194.365 322.449C180.763 325.407 167.561 330.605 156.165 338.722C143.217 342.509 134.098 353.041 127.505 364.334C126.778 365.524 126.607 366.738 126.819 367.853C106.542 397.578 96.8649 433.165 95.5055 469.107C82.4662 476.933 101.703 547.24 106.181 561.836C106.186 561.834 106.19 561.833 106.195 561.83C109.1 566.974 112.399 581.653 119.67 580.517C124.657 586.157 132.605 585.048 139.373 585.481C138.271 589.71 138.813 594.549 140.125 598.728C141.677 603.702 149.292 603.871 150.372 598.448C217.772 611.544 286.927 601.094 355.085 603.06C374.792 603.2 394.496 603.81 414.156 605.214C416.924 605.411 419.73 602.582 419.542 599.826C415.315 554.854 411.346 495.692 406.619 451.16C405.499 441.005 404.612 430.737 401.45 420.968Z" fill="white"/>
<path fill-rule="evenodd" clip-rule="evenodd" d="M244.738 279.37C244.931 278.843 245.719 278.913 245.734 279.505C246.044 292.15 242.897 307.602 232.779 316.143C227.586 320.528 220.719 322.534 214.413 324.84L213.702 325.102L202.562 329.253C199.607 330.354 196.419 332.047 193.809 330.492C195.921 335.73 197.694 341.112 200.267 346.16C203.468 352.444 207.34 358.193 212.077 363.422C230.847 384.138 260.553 390.457 287.211 384.387C300.938 381.261 314.296 375.338 323.661 364.533C330.778 356.32 334.868 345.298 335.831 334.425C335.55 334.47 335.254 334.468 334.951 334.402C331.578 333.666 328.173 331.858 325.205 330.085L324.919 329.913C322.064 328.194 319.087 326.224 317.038 323.553C315.002 320.9 312.866 312.247 312.866 312.247C312.285 308.995 311.739 302.516 311.832 299.229C311.841 298.919 313.217 298.736 313.364 299.058C314.635 301.849 315.046 307.98 316.028 310.885L316.226 311.465C317.274 314.498 318.172 318.191 320.345 320.643C324.424 325.247 330.579 327.197 336.073 329.506C336.467 324.302 344.778 324.423 344.673 329.851C344.667 330.145 344.654 330.438 344.643 330.731C345.299 331.092 345.929 331.504 346.518 331.901L347.093 332.292C349.269 333.772 351.462 335.179 353.779 336.435C358.265 338.866 363.014 340.794 367.61 343.002C372.26 345.235 376.609 347.896 380.67 351.08C382.577 352.576 384.405 354.168 386.14 355.861L386.61 356.325C388.261 357.969 390.409 359.808 391.35 361.969C391.557 362.445 392.596 363.553 393.159 363.59C401.892 364.163 410.607 364.971 419.285 366.184C421.531 366.497 422.419 367.655 421.589 369.528C418.735 375.964 407.563 401.666 404.592 408.564C404.939 413.631 404.47 419.597 404.783 424.666C405.24 432.063 405.839 439.457 406.557 446.833C409.126 473.218 413.021 499.475 416.54 525.746C418.301 538.893 419.907 552.06 421.492 565.23C422.293 571.885 422.972 578.547 423.495 585.231C423.712 588.016 423.91 590.803 424.084 593.591L424.234 596.064C424.442 599.176 424.918 602.148 422.992 604.819C422.119 606.031 420.125 606.713 418.977 605.336C417.534 603.606 416.998 602.313 416.86 600.04C416.754 598.3 416.729 596.552 416.65 594.81C416.478 591.035 416.263 587.261 416.011 583.49C415.507 575.951 414.933 568.413 414.267 560.886C411.934 534.493 407.499 508.299 404.548 481.972C403.061 468.699 402.005 455.401 401.445 442.055C401.165 435.39 401.064 428.726 401.13 422.055C401.155 419.563 401.273 417.083 401.443 414.609C397.023 424.652 392.376 434.598 387.517 444.412L386.365 446.737C383.286 452.94 380.125 459.166 376.424 465.014L375.788 466.011C374.289 468.386 372.241 472.132 369.507 472.881C367.603 473.404 365.276 473.036 363.323 472.998C361.386 472.961 359.446 472.953 357.51 472.875C355.338 472.787 353.265 472.502 351.166 471.936C350.818 471.842 350.488 471.74 350.187 471.611C348.072 475.071 344.479 477.707 340.806 479.243C337.863 480.473 334.779 481.316 331.69 482.097L330.6 482.37C327.288 483.196 323.499 483.588 321.631 486.786L321.197 487.528C319.809 489.887 318.477 491.959 316.178 493.651C313.704 495.472 310.773 496.618 307.854 497.509C304.864 498.422 301.805 499.12 298.77 499.869L297.942 500.074C295.939 500.576 293.917 501.036 291.925 501.582C291.075 501.814 290.21 502.054 289.376 502.341C288.4 502.676 287.691 503.2 286.92 503.77C286.228 506.189 283.269 507.502 280.836 507.333C279.559 507.245 278.412 506.811 277.37 506.176C275.549 507.726 273.545 509.114 271.689 510.55C269.091 512.56 266.482 514.556 263.859 516.534C258.451 520.611 253.001 524.634 247.495 528.578C237.722 535.578 227.737 542.258 217.581 548.69C213.347 551.372 209.084 554.049 204.779 556.663L205.238 556.833L206.15 557.177C208.304 557.982 210.704 559.281 211.121 561.794C211.452 563.787 210.339 565.161 208.371 565.404C206.032 565.693 204.212 564.041 202.756 562.463C202.113 561.768 201.394 561.121 200.778 560.405C200.527 560.113 200.334 559.775 200.164 559.422C195.916 561.926 191.623 564.345 187.261 566.607L186.17 567.17C175.354 572.701 164.827 578.761 153.919 584.134C151.074 585.536 147.605 587.053 143.989 588.088C144.949 591.807 144.934 595.891 144.958 599.666C144.981 603.345 139.135 603.327 139.258 599.666L139.318 597.898C139.424 594.924 139.598 591.838 140.304 588.945C129.65 590.712 119.006 586.872 117.025 585.718C114.837 584.446 112.852 582.411 111.2 580.523C107.664 576.481 105.21 571.636 103.034 566.762C98.3705 556.325 95.0669 545.168 92.6516 534.01C83.747 492.872 87.5771 448.841 102.038 409.407C105.651 399.554 109.916 389.918 114.804 380.632L115.411 379.484C120.289 370.3 125.71 361.151 132.596 353.336C139.768 345.195 148.616 338.865 158.249 333.951C162.951 331.553 167.788 329.474 172.732 327.632C173.526 327.336 174.326 327.071 175.127 326.818C180.28 323.533 186.533 320.39 192.788 320.514C193.213 320.521 193.557 320.683 193.814 320.926C194.116 320.978 194.417 321.042 194.719 321.13C195.386 321.324 196.09 322.054 195.994 322.805L195.962 323.055C195.944 323.177 195.922 323.294 195.884 323.409C196.108 323.443 196.327 323.496 196.542 323.569C202.527 321.879 208.415 319.294 214.256 317.209L215.586 316.739C220.477 315.025 225.495 313.344 229.508 309.952C233.5 306.577 236.501 302.205 238.672 297.479C241.345 291.656 242.542 285.348 244.738 279.37ZM364.562 586.475C365.746 585.594 367.148 586.617 367.591 587.708C369.047 591.29 368.328 596.854 366.276 600.021C364.149 603.302 359.059 602.007 358.936 598.033C358.808 593.889 361.216 588.966 364.562 586.475ZM376.802 487.587C376.908 487.121 377.631 487.126 377.739 487.587C378.726 491.789 378.703 496.314 378.993 500.623L379.026 501.101C379.374 505.852 379.666 510.616 379.874 515.376C380.283 524.74 380.771 534.105 381.319 543.462C381.591 548.102 381.882 552.742 382.192 557.38C383.165 556.838 384.167 556.362 385.205 555.942C386.761 555.313 388.276 555.241 389.948 555.258C391.983 555.279 393.516 557.069 393.247 559.064C392.953 561.236 391.041 562.167 389.055 561.857C386.855 561.512 384.646 560.979 382.426 560.758C382.673 564.344 382.929 567.93 383.2 571.513C383.559 576.257 384.027 580.995 384.356 585.741C384.388 586.194 384.422 586.647 384.456 587.102C385.78 586.413 387.187 586.061 388.78 585.627L389.195 585.51C391.509 584.846 393.984 583.927 396.126 585.483C397.565 586.529 397.853 588.251 396.66 589.631C394.852 591.724 392.177 591.318 389.679 591.211L388.335 591.162C387.069 591.112 385.901 591.032 384.73 590.712C384.945 593.804 385.058 596.907 384.679 599.954C384.474 601.6 382.307 602.033 381.733 600.352C380.234 595.962 379.925 591.228 379.376 586.63C378.864 582.336 378.553 578.01 378.217 573.696L378.116 572.403C377.361 562.912 376.758 553.417 376.317 543.908C375.876 534.4 375.611 524.893 375.505 515.376C375.457 511.054 375.529 506.717 375.698 502.396L375.752 501.101C375.946 496.657 375.81 491.941 376.802 487.587ZM178.752 587.176C178.809 586.569 179.296 585.814 180.019 585.909C180.686 585.995 181.372 585.954 182.032 586.064C182.902 586.208 183.603 586.722 184.412 587.046C185.728 587.572 187.162 587.844 188.512 588.274C191.044 589.082 192.424 591.748 191.375 594.238C190.273 596.856 187.501 597.45 185.107 596.352C183.219 595.486 181.812 594.102 180.543 592.501L180.183 592.044C179.637 591.356 179.016 590.588 178.786 589.755C178.563 588.943 178.673 588.002 178.752 587.176ZM301.793 574.871C304.947 574.427 307.641 575.505 310.56 576.522L310.797 576.604C313.768 577.629 318.102 578.339 319.625 581.38C320.543 583.214 319.83 585.649 317.668 586.191C314.245 587.05 311.175 584.547 308.345 582.863L308.196 582.775C305.464 581.174 302.644 579.829 300.899 577.068C300.433 576.332 300.837 575.005 301.793 574.871ZM191.677 323.986C190.413 324.269 189.15 324.52 187.887 324.76C183.085 327.334 178.424 330.006 173.466 332.299C168.205 334.733 162.964 337.246 157.967 340.19C147.871 346.138 139.549 353.871 132.672 363.349C120.794 379.723 111.958 398.605 105.634 417.764C104.009 422.687 102.555 427.664 101.269 432.684C103.543 430.58 106.235 429.287 109.255 428.179C110.534 427.71 112.127 428.504 112.776 429.612C113.067 430.11 113.232 430.602 113.202 431.186C113.134 432.474 112.296 433.938 110.912 434.193C107.687 434.787 104.55 435.945 101.44 436.964C100.968 437.118 100.563 437.06 100.24 436.878C97.1519 449.958 95.2202 463.307 94.536 476.737C93.9573 488.107 94.3143 499.566 95.5736 510.92C96.5412 510.485 97.4877 510.077 98.5487 509.83C99.9247 509.51 101.278 509.121 102.62 508.681C106.494 507.41 108.26 513.805 104.301 514.78C102.828 515.143 101.346 515.444 99.8444 515.664C98.536 515.856 97.3786 515.771 96.1451 515.57C97.0875 522.654 98.3747 529.686 100.014 536.618L100.376 538.135C102.506 546.989 104.988 555.926 108.578 564.292C110.339 568.397 112.671 572.295 115.549 575.717C116.964 577.4 118.533 578.842 120.245 580.209C121.67 581.347 126.515 583.815 132.252 583.815C137.989 583.815 139.542 583.272 142.437 582.276C148.161 580.305 153.596 577.159 158.965 574.357L159.52 574.069C161.894 572.841 164.259 571.595 166.617 570.337C166.319 567.932 166.841 565.912 168.094 563.691C169.448 561.288 172.804 562.485 173.053 564.943L173.061 565.037C173.099 565.591 173.192 566.155 173.307 566.718C189.078 558.079 204.515 548.834 219.706 539.201C229.491 532.995 239.172 526.604 248.712 520.026C253.48 516.738 258.208 513.391 262.888 509.978C265.34 508.189 267.781 506.387 270.21 504.569C271.222 503.812 272.214 503.017 273.229 502.256C272.982 501.947 272.742 501.64 272.509 501.335C268.722 496.377 266.266 490.466 265.042 484.369C264.302 480.69 263.945 476.871 263.837 473.12L263.789 471.489C263.714 468.741 263.695 465.865 264.201 463.202C263.512 463.581 262.808 463.952 262.106 464.35C259.588 465.777 257.068 467.2 254.543 468.617C249.488 471.452 244.418 474.256 239.284 476.946C230.113 481.751 220.852 486.322 211.341 490.418L206.713 492.413C198.68 495.868 190.583 499.261 182.232 501.829C177.522 503.278 172.776 504.515 167.998 505.621L169.93 507.884C171.24 509.42 171.263 511.621 169.589 512.913C167.943 514.184 165.734 513.655 164.638 511.968L162.639 508.893C162.212 508.236 161.969 507.62 161.832 506.971C159.631 507.432 157.424 507.874 155.211 508.302L151.029 509.1C145.056 510.253 139.265 512.536 133.926 515.458C132.07 516.473 131.553 514.5 133.519 513.125C139.269 509.105 145.976 506.831 152.896 504.922L153.236 504.828C155.775 504.133 158.309 503.408 160.838 502.657C160.56 501.651 160.4 500.607 160.432 499.456C160.503 496.891 160.73 494.318 160.866 491.756C161.151 486.377 161.516 481.016 161.943 475.647C162.107 473.579 162.291 471.506 162.502 469.433C161.146 468.706 159.976 467.741 158.464 467.266L158.209 467.192C156.592 466.756 157.138 464.672 158.574 464.494C159.875 464.333 161.17 464.407 162.453 464.682C162.651 464.725 162.839 464.774 163.019 464.828C163.254 462.909 163.516 460.995 163.813 459.091C164.598 454.062 165.154 448.763 166.789 443.93C166.911 443.572 167.442 443.444 167.639 443.819C170.018 448.345 170.1 453.897 170.369 458.936L170.402 459.539C170.718 465.037 170.736 470.589 170.634 476.095C170.529 481.769 170.335 487.428 170.08 493.097C169.978 495.38 169.982 497.748 169.593 499.931C183.749 495.329 197.654 489.82 210.983 483.298C220.385 478.697 229.706 473.912 238.921 468.947C243.538 466.459 248.177 464.012 252.789 461.516C254.405 460.641 256.019 459.763 257.633 458.883L260.054 457.563C262.319 456.327 264.21 455.097 266.848 455.01C267.635 454.984 268.34 455.353 268.841 455.911C270.259 454.905 271.898 454.287 273.617 454.302C276.206 450.726 278.835 447.179 281.568 443.709L283.587 441.14C287.082 436.708 290.784 432.208 295.24 428.834C297.229 427.329 299.417 426.2 301.698 425.267C301.161 425.136 300.636 424.872 300.168 424.438C297.988 422.417 297.688 418.664 297.246 415.844C296.786 412.92 296.964 410.303 297.417 407.388C297.594 406.255 299.469 406.02 299.927 407.06C300.892 409.254 301.914 411.356 302.792 413.574L303.051 414.243C303.994 416.74 306.001 419.367 305.869 422.076C305.832 422.819 305.584 423.466 305.2 423.986C307.115 423.35 309.057 422.783 310.97 422.191C316.99 420.331 323.033 418.523 329.169 417.08C330.802 416.696 332.444 416.339 334.092 416.012C334.956 411.912 336.214 407.888 337.698 403.936C336.293 403.216 335.383 402.009 334.174 400.936C333.041 399.931 332.264 398.707 331.298 397.553C330.418 396.503 330.912 394.607 332.493 394.668L332.94 394.687C334.577 394.763 336.163 394.932 337.647 395.696L338.176 395.969C338.901 396.346 339.695 396.777 340.402 397.287C341.327 395.16 342.288 393.053 343.26 390.967L344.52 388.271C347.789 381.252 351.048 373.965 355.152 367.43C356.977 364.524 359.405 362.71 362.889 362.429C366.478 362.14 370.209 362.513 373.802 362.642C377.968 362.791 382.133 362.968 386.294 363.186C385.228 362.069 384.254 360.825 383.183 359.752C381.404 357.974 379.525 356.288 377.55 354.73C373.641 351.647 369.343 349.106 364.879 346.918C360.414 344.729 355.818 342.821 351.626 340.118C348.974 338.407 346.603 336.254 344.44 333.925C343.079 348.615 335.986 362.263 325.33 372.516C314.263 383.165 298.969 389.016 284.007 391.505C268.746 394.043 252.819 393.112 238.22 387.807C230.693 385.071 223.474 381.163 217.035 376.261C216.964 376.688 216.879 377.109 216.712 377.505C216.488 378.038 216.213 378.491 215.898 378.959L215.337 379.779C214.983 380.295 214.622 380.807 214.221 381.286C213.247 382.445 211.869 382.952 210.384 382.947C207.54 382.937 205.387 380.149 206.152 377.391C206.633 375.658 207.662 374.615 209.268 373.937C209.776 373.722 210.293 373.542 210.814 373.366L211.204 373.233C211.73 373.053 212.252 372.881 212.794 372.782C209.745 370.091 206.916 367.165 204.383 364.007C196.439 354.103 188.603 340.233 191.259 327.081C191.305 326.855 191.508 326.713 191.727 326.677C191.881 325.754 192.373 324.861 193.046 324.26C192.593 324.141 192.136 324.049 191.677 323.986ZM274.174 551.387C275.747 550.513 277.372 552.592 276.094 553.876L274.184 555.786C272.413 557.567 270.688 559.367 269.172 561.396L268.804 561.892C266.757 564.677 264.574 567.904 261.22 568.945C257.163 570.204 253.264 565.262 255.613 561.651C257.666 558.496 261.618 557.306 265.025 556.001C268.249 554.767 271.16 553.063 274.174 551.387ZM143.288 536.827C144.213 535.617 146.623 536.254 145.992 537.967C143.941 543.528 143.105 551.112 137.924 554.806C136.253 555.998 133.628 555.45 132.252 554.074C130.688 552.511 130.625 550.309 131.52 548.401C132.61 546.074 135.293 544.387 137.173 542.615L137.341 542.453C139.364 540.488 141.552 539.1 143.288 536.827ZM359.801 543.228C361.451 542.516 365.752 541.133 367.026 542.77C367.085 542.83 367.136 542.896 367.177 542.968C367.49 543.511 367.536 544.277 367.177 544.816C365.692 547.048 364.146 548.714 362.034 550.303L361.797 550.479C359.499 552.169 357.339 554.154 354.539 554.916C350.657 555.973 347.945 551.112 350.672 548.274C352.868 545.987 356.221 544.8 359.132 543.525L359.801 543.228ZM203.91 511.45C203.26 510.277 204.587 508.837 205.789 509.571C209.216 511.666 213.209 513.238 217.059 514.367C218.617 514.824 220.023 516.403 219.907 518.108L219.889 518.366C219.843 518.968 219.76 519.566 219.377 520.066C218.037 521.82 216.118 522.496 214.07 521.458C209.505 519.144 206.38 515.915 203.91 511.45ZM304.091 507.896C304.008 507.402 304.369 507.021 304.87 507.116C307.767 507.665 310.442 509.064 312.93 510.673C314.264 511.535 315.551 512.483 316.882 513.354C318.526 514.43 319.141 515.318 319.384 517.292C319.545 518.595 318.328 519.785 317.213 520.145C314.172 521.125 310.689 517.908 308.629 515.818L308.537 515.723C306.381 513.525 304.602 510.926 304.091 507.896ZM391.091 504.481C390.431 502.698 392.706 501.219 394.195 502.095C395.596 502.92 397.116 503.603 398.438 504.548C399.653 505.417 400.76 506.446 401.925 507.387L402.501 507.843C404.637 509.561 408.163 513.809 405.109 516.273C402.202 518.618 398.347 515.623 396.396 513.433L396.26 513.278C395.137 511.981 393.753 510.572 392.938 509.057C392.172 507.631 391.652 505.995 391.091 504.481ZM362.421 366.44C358.78 367.147 357.296 371.642 355.763 374.572C352.144 381.486 348.816 388.527 345.474 395.578C344.445 397.746 343.443 399.931 342.432 402.113C342.37 402.283 342.291 402.452 342.197 402.618C340.126 407.077 337.994 411.507 335.501 415.74C337.782 415.313 340.075 414.949 342.377 414.662C342.261 412.494 343.745 409.594 344.479 407.769L344.54 407.615C345.455 405.277 346.415 401.593 348.771 400.38C349.556 399.976 350.396 400.482 350.456 401.347C350.635 403.921 348.118 406.866 346.887 409.05C346.143 410.372 345.418 411.7 344.711 413.041C344.446 413.544 344.225 414.037 343.953 414.48C345.14 414.351 346.329 414.237 347.521 414.153L348.297 414.1C352.715 413.809 357.407 413.726 361.399 415.905C365.102 417.925 366.995 422.239 364.961 426.168C362.426 431.062 356.844 431.71 351.936 432.107C345.806 432.601 339.661 433.494 333.574 434.365C327.278 435.266 321.349 437.587 315.146 438.78C314.569 438.891 314.21 438.137 314.739 437.814C319.632 434.836 325.58 433.197 331.05 431.527L331.492 431.392C334.459 430.481 337.359 429.439 340.428 428.922C343.408 428.421 346.406 428.014 349.411 427.705L349.703 427.678C353.012 427.4 361.453 427.495 361.097 422.596C360.861 419.353 355.59 418.793 353.184 418.754C342.154 418.578 331.044 421.506 320.561 424.643L318.221 425.345C313.928 426.636 309.629 427.965 305.418 429.479C300.645 431.195 296.884 433.87 293.408 437.532C289.554 441.592 285.821 445.743 281.822 449.666C279.301 452.139 276.748 454.568 274.174 456.977C273.592 457.73 273.127 458.549 272.805 459.612C272.261 461.406 272.386 463.075 272.591 464.918C273.11 469.574 273.224 474.278 273.874 478.919C274.476 483.219 275.318 487.677 277.103 491.665C277.81 493.245 278.73 494.796 279.778 496.184L280.623 497.283C280.992 497.761 281.404 498.284 281.837 498.775C282.473 498 283.392 497.495 284.461 497.622C286.732 497.889 288.517 497.825 290.745 497.303C292.469 496.899 294.18 496.427 295.897 495.989C299.268 495.129 302.67 494.346 306.007 493.359L306.58 493.186C309.067 492.423 311.554 491.468 313.624 489.862C316.028 487.997 316.768 485.305 318.549 482.978C322.352 478.009 330.57 478.113 336.134 476.751C340.863 475.595 345.414 473.77 348.687 470.339L348.878 470.134C348.733 469.522 348.968 468.831 349.537 468.513L349.661 468.445C349.882 468.321 350.121 468.269 350.356 468.274C350.659 467.828 350.952 467.367 351.219 466.877C351.438 466.472 351.985 466.77 351.914 467.169C351.871 467.408 351.811 467.64 351.755 467.873C354.925 467.058 358.406 467.214 361.625 467.216L365.802 467.201C366.525 467.192 367.602 467.156 367.698 467.113L367.796 467.069C368.056 466.956 367.687 467.142 367.869 466.901C368.069 466.635 368.266 466.365 368.459 466.093C369.152 465.125 369.807 464.127 370.448 463.12C363.454 464.902 356.208 466.01 349.067 466.935C341.405 467.928 333.642 468.617 325.911 468.624C323.78 468.626 323.8 465.409 325.911 465.328C334.097 465.016 342.24 464.582 350.37 463.533C354.575 462.99 358.762 462.309 362.926 461.512C364.533 461.205 366.137 460.879 367.736 460.534L368.935 460.272C369.688 460.106 371.813 459.867 372.85 459.171C373.053 458.821 373.257 458.472 373.459 458.122C373.36 456.894 370.237 457.058 369.506 457.056C367.43 457.052 365.354 457.069 363.278 457.074C359.127 457.086 354.976 457.05 350.824 457.017C342.529 456.949 334.203 456.66 325.915 457.014C323.903 457.1 322.846 453.873 324.834 453.024C333.613 449.276 343.358 448.461 352.732 447.309C357.661 446.703 362.594 446.004 367.412 444.778L368.604 444.475C371.631 443.699 374.974 442.752 377.523 440.903C373.692 439.353 368.929 439.53 364.958 439.311L364.654 439.293C359.092 438.951 353.521 438.777 347.95 438.768C336.55 438.753 325.146 439.157 313.758 439.697C313.473 439.711 313.414 439.259 313.691 439.199C325.396 436.645 337.291 435.414 349.269 435.225C354.847 435.137 360.428 435.216 366.002 435.462L368.047 435.557C372.799 435.762 378.072 435.817 382.048 438.687C382.654 439.124 382.974 439.683 383.024 440.274C388.356 429.643 393.281 418.791 398.226 408.011C402.07 399.629 405.771 391.176 409.755 382.86L411.045 380.169C412.772 376.579 414.541 372.988 416.506 369.528C409.159 368.546 401.771 367.864 394.379 367.342C387.643 366.866 365.664 365.811 362.421 366.44ZM359.168 481.65C360.006 481.184 361.29 481.564 361.496 482.597C361.65 483.366 361.912 484.22 361.912 485.007C361.912 485.95 361.575 486.975 361.395 487.897C360.982 490.018 360.473 491.742 359.394 493.631C358.72 494.814 357.357 495.617 355.988 495.585C354.904 495.56 353.943 495.269 353.199 494.43C352.307 493.424 351.695 491.945 352.184 490.591C353.465 487.044 355.82 483.509 359.168 481.65ZM181.457 478.111C183.417 474.676 188.065 471.607 192.12 471.911C198.209 472.367 199.452 480.567 193.556 482.524C190.032 483.693 185.184 482.492 182.101 480.568C181.27 480.049 180.965 478.971 181.457 478.111ZM118.873 466.378C118.427 465.731 119.163 464.991 119.827 465.137C121.298 465.46 122.885 465.601 124.326 466.04C125.802 466.489 127.231 467.233 128.693 467.746C131.756 468.819 135.028 469.357 137.992 470.653C139.177 471.171 140.109 472.887 139.999 474.152L139.971 474.448C139.906 475.076 139.797 475.624 139.446 476.198C138.502 477.738 136.633 478.534 134.869 478.06C131.597 477.181 128.399 474.922 125.609 473.046L125.093 472.703C123.874 471.9 122.563 471.06 121.581 470.026C120.555 468.947 119.713 467.6 118.873 466.378ZM231.367 453.888C230.99 452.531 232.678 451.635 233.662 452.551C235.628 454.383 237.684 456.082 239.609 457.96L239.738 458.088C241.117 459.474 243.123 462.144 241.33 463.937C239.032 466.235 235.833 462.825 234.6 461.049C233.036 458.795 232.098 456.523 231.367 453.888ZM381.814 442.67C378.898 445.76 374.404 447.18 370.448 448.357C365.757 449.751 360.924 450.584 356.085 451.269C351.41 451.931 346.771 452.523 342.17 453.282C345.651 453.325 349.131 453.351 352.603 453.413C356.607 453.486 360.61 453.572 364.613 453.689C367.528 453.774 370.949 453.374 373.72 454.457C374.219 454.652 374.686 454.922 375.093 455.252C377.422 451.11 379.655 446.91 381.814 442.67ZM201.92 413.78C204.964 412.813 207.826 411.53 211.053 411.863C211.911 411.951 212.525 412.786 212.057 413.611C210.528 416.302 208.041 417.822 205.593 419.622L205.377 419.782C202.698 421.775 199.821 423.591 196.907 425.227C191.89 428.042 187.395 419.984 192.461 417.619C195.51 416.196 198.712 414.799 201.92 413.78ZM256.725 406.784C261.382 407.09 266.037 407.299 270.7 407.487C276.101 407.706 274.285 416.018 269.773 414.336C265.316 412.673 260.858 411.032 256.36 409.482C254.991 409.01 255.101 406.761 256.638 406.78L256.725 406.784ZM137.277 391.996C138.484 391.911 139.701 392.175 140.91 392.292L142.196 392.417C144.848 392.681 147.334 393.006 149.862 394.085C154.528 396.077 152.022 403.578 147.338 403.405C143.877 403.278 140.916 401.791 137.993 400.06C135.438 398.547 133.871 396.654 132.145 394.278C131.574 393.491 132.37 392.609 133.148 392.53C134.519 392.39 135.905 392.092 137.277 391.996ZM371.155 376.678C370.383 381.496 368.467 386.012 365.579 389.943C364.128 391.919 361.58 391.993 360.142 389.943C358.107 387.042 359.362 383.719 360.895 380.933L361.348 380.117C362.034 378.894 363.088 377.11 364.293 375.878L364.313 375.752C364.959 370.707 371.951 371.714 371.155 376.678ZM182.79 345.757C183.951 344.712 186.09 345.026 186.466 346.728C186.994 349.111 187.315 351.797 186.969 354.217C186.782 355.528 186.712 357 186.196 358.222C185.642 359.536 184.576 360.547 183.571 361.535C181.565 363.507 177.337 362.855 176.8 359.747L176.732 359.366C176.462 357.895 176.116 356.324 176.516 354.866C176.818 353.766 177.493 352.645 178.052 351.624L178.169 351.407C179.288 349.324 181.032 347.34 182.79 345.757ZM345.986 350.828L346.406 350.833C349.647 350.897 355.572 351.686 355.603 355.691C355.611 356.634 354.912 357.613 353.975 357.83C352.038 358.279 350.785 357.134 349.405 355.978C348.276 355.032 346.96 354.277 345.593 353.733C344.116 353.146 344.213 350.826 345.986 350.828Z" fill="black"/>
<path fill-rule="evenodd" clip-rule="evenodd" d="M301.792 146.568C249.921 144.675 200.356 179.54 183.668 228.82C182.455 232.685 186.229 236.296 190.036 235.643C186.142 255.253 194.653 281.649 216.822 284.431C221.363 285.004 225.928 284.674 230.475 285.091C234.528 285.462 256.593 297.876 264.855 300.784C282.25 306.861 326.023 305.748 343.436 300.784C344.07 302.227 357.593 246.764 360.673 229.567C361.796 222.117 351.534 216.601 352.291 208.923C353.263 199.061 364.798 187.036 361.264 177.647C351.949 153.75 324.915 147.082 301.792 146.568Z" fill="white"/>
<path fill-rule="evenodd" clip-rule="evenodd" d="M276.031 103.126C278.361 103.32 280.705 103.649 283.008 104.082C290.008 102.937 297.25 104.208 304.038 106.412C319.934 111.573 335.236 120.534 347.215 132.231C353.381 138.253 358.424 145.19 361.53 153.259C363.107 157.351 363.995 161.719 364.252 166.096L364.281 166.626C364.353 168.079 364.385 169.82 364.212 171.545C364.767 175.027 365.261 178.537 365.299 182.059C365.316 183.69 365.21 185.319 365.012 186.936L365.08 187.09V187.09C364.792 189.022 364.449 190.945 364.058 192.858L363.96 192.985C363.906 193.374 363.845 193.762 363.787 194.15C363.574 195.134 363.352 196.115 363.116 197.093C362.606 199.21 362.041 201.313 361.432 203.404C361.326 203.77 361.428 204.059 361.628 204.249C361.185 205.84 360.7 207.419 360.163 208.982C360.427 210.349 360.693 211.716 360.975 213.078C362.449 220.164 363.698 227.294 365.374 234.34C368.773 248.637 373.938 262.705 375.357 277.404C376.462 288.804 374.627 301.267 367.542 310.579C361.435 318.603 352.25 323.34 342.33 324.602C337.584 325.211 332.716 324.931 328.074 323.732L327.568 323.599C325.243 322.973 322.285 321.993 320.124 320.415C317.78 319.59 315.567 318.066 314.233 316.579C312.412 314.546 310.425 311.071 310.92 308.181C308.212 308.402 305.485 308.465 302.803 308.456C296.196 308.443 289.53 307.92 283.175 306C277.505 304.287 270.898 301.425 267.544 296.259C267.387 296.016 267.648 295.664 267.923 295.759C270.632 296.71 273.165 297.995 275.959 298.72C278.708 299.432 281.458 300.104 284.293 300.397C289.835 300.968 295.461 300.891 301.022 300.617L302.931 300.518C308.882 300.199 315.032 299.745 320.597 297.517C322.781 296.643 324.802 295.424 326.644 293.975L326.934 293.744C327.921 292.942 328.939 292.265 329.976 291.625C330.125 291.436 330.274 291.247 330.422 291.053C332.779 288.028 335.312 285.112 337.435 281.916C341.654 275.574 343.281 268.984 343.502 261.421C343.733 253.437 343.76 245.442 343.855 237.456L343.889 234.795C344.011 225.663 344.029 216.499 344.732 207.389C345.056 203.157 345.517 198.944 346.226 194.762L346.382 193.867L347.526 187.417C347.802 185.863 347.963 184.262 348.315 182.715C347.919 182.066 347.462 181.441 346.931 180.846C346.442 180.297 345.945 179.765 345.45 179.236L345.092 178.921C344.276 178.192 343.574 177.496 342.916 176.494L342.758 176.246V176.246C342.051 175.393 341.385 174.502 340.797 173.522L340.688 173.332V173.332C340.541 173.148 340.395 172.963 340.243 172.781C339.771 172.213 339.276 171.677 338.765 171.164C336.971 174.63 334.433 177.633 330.84 179.509C329.54 180.188 327.955 179.607 327.529 178.163C326.454 174.517 324.822 171.127 322.662 168.057C319.055 174.06 313.335 178.755 306.595 181.047C304.911 181.619 303.427 179.852 303.823 178.274C305.039 173.423 305.281 168.491 304.567 163.615C302.022 165.433 299.398 167.145 296.704 168.733C290.708 173.368 284.356 177.539 277.368 180.534C275.754 181.227 273.324 180.063 274.058 177.99C274.675 176.243 275.183 174.468 275.508 172.645L275.58 172.223C275.582 172.21 275.583 172.198 275.585 172.185C259.402 194.511 220.157 216.026 217.145 216.233L217.063 216.234V216.234C218.944 218.031 220.463 220.251 221.456 222.803C222.499 225.483 218.245 226.65 217.145 224.087L217.11 224.002C215.417 219.654 211.231 216.537 206.677 215.8C203.924 216.3 201.322 217.628 199.547 219.641C196.054 223.603 196.022 228.381 198.406 232.888L198.756 233.545C200.047 235.953 201.407 238.366 202.134 241.011C203.022 244.256 202.35 247.547 202.932 250.787L202.963 250.959C203.239 252.4 203.834 254.04 205.55 253.645C205.683 253.615 205.811 253.574 205.938 253.53C206.3 253.818 206.735 254.057 207.278 254.215C208.607 254.602 210.075 254.414 211.397 254.101C212.674 253.799 213.915 253.326 215.109 252.771C215.241 253.098 215.322 253.439 215.33 253.767C215.371 255.444 214.677 256.823 213.609 257.945C215.312 260.1 216.768 262.471 218.409 264.671C220.766 267.826 223.177 270.913 225.742 273.902C228.41 277.017 231.317 279.96 234.332 282.741C236.446 284.688 239.939 286.771 241.264 289.597C242.787 290.07 244.081 291.238 244.554 293.158C245.415 296.638 245.667 304.792 244.991 308.33C244.32 311.837 241.76 314.023 238.929 315.871C238.145 316.385 237.257 316.331 236.536 315.948C235.901 316.565 235.184 317.133 234.364 317.638C231.335 319.509 227.815 320.189 224.326 320.582C219.617 322.087 214.537 322.484 209.516 321.546C207.876 321.74 206.235 321.916 204.59 322.06C187.761 323.525 170.652 322.276 154.237 318.269C146.706 316.43 139.595 313.088 132.969 308.795C121.549 301.395 116.715 280.624 123.342 260.767L123.866 259.201C126.852 250.331 130.072 241.507 134.388 233.231L134.904 232.246C138.871 224.698 143.235 217.158 149.032 210.86C151.934 207.709 155.306 204.847 159.114 202.846C160.56 202.087 162.248 201.56 163.897 200.963L163.931 200.55V200.55L163.967 200.138C164.075 198.815 164.214 197.495 164.392 196.178C165.058 191.252 165.999 186.399 167.334 181.607C168.671 176.809 170.315 172.091 172.294 167.519C175.594 159.89 179.738 152.654 184.523 145.864C184.864 145.162 185.211 144.464 185.566 143.77C189.6 135.887 194.823 128.368 201.561 122.549C209.295 115.869 218.612 111.722 228.333 108.81C238.415 105.795 248.935 103.73 259.441 103.036C264.971 102.671 270.51 102.666 276.031 103.126ZM202.296 229.778C207.358 226.465 214.253 228.737 216.818 234.119C218.67 238.018 212.545 240.213 211.576 236.328C210.612 232.433 206.47 229.643 202.49 230.238C202.215 230.283 202.044 229.941 202.296 229.778Z" fill="black"/>
<path fill-rule="evenodd" clip-rule="evenodd" d="M309.582 278.082C312.988 277.608 316.652 275.678 319.906 277.246C321.427 277.979 322.149 280.486 321.12 281.879C319.55 284.007 317.928 284.359 315.379 284.564C313.467 284.717 311.545 284.728 309.639 284.508L309.154 284.448C305.752 284.009 302.216 283.06 299.581 280.773C299.042 280.305 299.318 279.295 300.01 279.149C303.14 278.49 306.414 278.523 309.582 278.082ZM305.572 270.236C305.571 270.209 305.613 270.209 305.614 270.236C305.696 272.184 306.243 273.989 307.255 275.655C307.269 275.679 307.232 275.7 307.218 275.676C306.207 274.009 305.654 272.185 305.572 270.236ZM316.311 230.048C319.715 232.117 324.9 236.941 321.239 242.07C316.929 246.593 310.724 241.408 307.667 239.062C304.831 237.245 301.646 241.919 304.276 244.042C326.371 260.402 335.338 230.589 318.032 227.615C316.127 227.288 315.419 229.408 316.311 230.048ZM333.731 206.894C334.53 206.894 335.294 207.165 335.99 207.667C336.675 208.162 337.296 208.883 337.812 209.782C338.79 211.484 339.401 213.834 339.401 216.432C339.401 219.03 338.79 221.38 337.812 223.082C337.296 223.982 336.675 224.703 335.99 225.197C335.294 225.699 334.53 225.97 333.731 225.97C332.931 225.97 332.167 225.699 331.471 225.197C330.786 224.703 330.166 223.982 329.649 223.082C328.671 221.38 328.06 219.03 328.06 216.432C328.06 213.834 328.671 211.484 329.649 209.782C330.166 208.883 330.786 208.162 331.471 207.667C332.167 207.165 332.931 206.894 333.731 206.894ZM296.72 209.544L297.021 209.487C298.776 209.168 299.663 209.276 301.192 210.472C302.341 211.371 302.012 213.142 301.192 214.088C299.764 215.736 298.369 215.444 296.412 215.507L296.275 215.512C294.645 215.578 293.013 215.625 291.382 215.649C290.936 215.657 290.489 215.655 290.043 215.658C290.09 219.787 287.709 222.931 284.574 225.321C282.548 226.867 279.985 225.084 279.262 223.16C278.664 221.568 278.535 219.61 278.845 217.867C278.96 217.225 279.2 216.527 279.566 215.932L279.669 215.773L279.652 215.545C279.648 215.488 279.652 215.434 279.65 215.378C276.74 215.201 273.846 214.909 270.954 214.542L269.99 214.417C267.521 214.09 263.895 213.985 261.897 212.379C261.834 212.328 261.856 212.216 261.923 212.18C263.021 211.588 264.136 211.622 265.364 211.567L265.54 211.559C266.876 211.49 268.209 211.432 269.544 211.387L270.88 211.345C274.297 211.247 277.718 211.081 281.132 210.899C281.725 210.868 282.319 210.83 282.913 210.794C283.535 210.533 284.196 210.377 284.848 210.349C285.389 210.324 285.909 210.399 286.398 210.555C287.645 210.458 288.892 210.353 290.137 210.24L291.382 210.125C293.139 209.958 294.986 209.885 296.72 209.544ZM318.294 178.596C322.05 176.75 326.617 176.705 330.484 178.233L330.741 178.336C334.647 179.958 339.354 183.703 338.335 188.367C337.403 192.637 330.707 191.913 330.367 187.878C328.205 184.882 323.357 184.225 320.309 186.13C318.461 187.285 317.192 189.231 316.325 191.194C315.586 192.865 315.447 194.929 314.311 196.385C314.274 196.432 314.201 196.441 314.147 196.428C310.761 195.645 310.683 190.264 311.26 187.655C312.099 183.86 314.791 180.319 318.294 178.596Z" fill="black"/>
</svg>
