<svg width="33" height="29" viewBox="0 0 33 29" fill="none" xmlns="http://www.w3.org/2000/svg">
<path d="M14.9815 0L6.70013 8.30816H0V20.3148H6.70013L14.9815 28.623V0Z" fill="black"/>
<path d="M29.6413 14.3115C29.6413 18.4388 27.9797 22.1908 25.2996 24.9245L27.0953 26.7201C30.2309 23.5309 32.1874 19.1356 32.1874 14.3115C32.1874 9.48738 30.2309 5.09209 27.0685 1.90283L25.2728 3.69847C27.9797 6.43212 29.6413 10.1842 29.6413 14.3115Z" fill="black"/>
<path d="M24.5762 14.3115C24.5762 17.0451 23.4773 19.5376 21.7085 21.36L23.5041 23.1557C25.7286 20.8776 27.0954 17.7688 27.0954 14.3115C27.0954 10.8542 25.7286 7.74536 23.5041 5.46732L21.7085 7.26295C23.4773 9.08539 24.5762 11.5778 24.5762 14.3115Z" fill="black"/>
<path d="M19.5108 14.3115C19.5108 15.6515 18.9748 16.8843 18.1172 17.7688L19.9128 19.5644C21.226 18.1976 22.0301 16.3483 22.0301 14.3115C22.0301 12.2747 21.226 10.4254 19.9128 9.05859L18.1172 10.8542C19.0016 11.7386 19.5108 12.9715 19.5108 14.3115Z" fill="black"/>
</svg>
