<svg width="223" height="256" viewBox="0 0 223 256" fill="none" xmlns="http://www.w3.org/2000/svg">
<path fill-rule="evenodd" clip-rule="evenodd" d="M189.426 86.7169C173.57 44.9968 144.987 14.4508 96.8015 33.6366C95.4192 32.6954 93.6155 32.443 91.8871 33.5451C65.6385 50.0285 46.7364 76.4556 38.5449 106.255C33.5596 107.203 28.7155 108.856 24.3887 111.568C14.9852 117.46 8.65867 126.837 2.7283 135.969C0.944867 138.715 2.59625 143.26 5.94768 143.883C7.40346 144.155 8.84616 144.316 10.2808 144.358C9.93146 145.626 9.47174 146.851 8.88627 147.975C6.76661 152.043 10.7711 156.361 14.5241 155.249C14.9406 155.47 15.3769 155.651 15.8289 155.787C15.8803 158.091 17.0643 161.176 19.4075 161.641C23.197 162.455 28.2332 159.554 27.339 155.315C28.4838 155.517 29.6245 155.542 30.7364 155.402C30.8608 157.61 30.822 159.913 31.1267 161.949C32.1228 171.544 41.7093 177.99 50.8513 175.071C51.412 178.061 52.0705 182.262 55.0149 183.884C58.4574 193.542 64.4018 204.564 74.1379 208.965C73.2712 211.186 73.7413 213.887 76.3517 215.374C94.173 225.535 115.563 228.973 135.712 225.195C143.764 224.716 151.609 222.896 159.14 219.019C164.631 216.192 169.68 212.602 174.608 208.901C179.538 205.198 184.81 201.593 188.746 196.786C193.02 191.565 195.01 185.422 196.301 178.884C202.219 149.207 200.175 120.068 189.426 91.7974C176.121 56.8033 202.727 121.713 189.426 86.7169Z" fill="white"/>
<path fill-rule="evenodd" clip-rule="evenodd" d="M112.77 25.5067C120.885 24.9338 129.147 26.3018 136.875 28.7489C149.2 32.6506 160.519 39.5363 169.818 48.5004C179.403 57.7385 186.491 69.1285 190.801 81.7085C195.998 96.8798 196.776 113.079 198.239 128.916C198.978 136.918 200.196 144.797 201.462 152.721L201.662 153.973C202.899 161.693 203.595 169.502 201.886 177.21C199.046 190.021 190.531 200.896 180.424 208.931C159.662 225.439 127.34 235.503 103.166 220.313C99.4257 217.963 102.97 211.953 106.621 214.402C109.19 216.126 111.912 217.637 114.832 218.681C127.029 223.04 140.424 221.487 152.479 217.432C164.358 213.436 175.756 206.684 184.522 197.675C193.729 188.211 198.831 176.522 198.094 163.221C197.654 155.307 195.852 147.54 194.851 139.691C193.965 132.739 193.433 125.749 192.821 118.769L192.596 116.258C191.298 102.037 189.432 87.4249 182.962 74.5159C177.52 63.6555 169.551 53.9937 159.969 46.5319C149.937 38.72 137.955 33.2564 125.384 31.2186C110.6 28.8224 96.4474 33.1798 84.1148 41.2915C73.1771 48.4855 63.7736 58.0991 56.5632 69.0072C53.0667 74.2963 50.088 79.9447 47.5158 85.7373C45.0919 91.195 43.4207 96.915 41.4714 102.54C43.0755 102.493 44.7061 102.554 46.362 102.737C54.8551 103.678 62.7681 108.081 67.8056 115.022C73.9618 123.503 72.2978 133.915 74.7023 143.561C74.8884 144.31 74.572 145.042 73.9307 145.457C70.2849 147.813 65.4056 147.892 61.877 145.238C58.8145 142.935 57.3768 138.772 58.6166 135.134C58.7784 134.659 59.4689 134.743 59.4883 135.252C59.7213 141.443 65.4646 146.21 71.0944 143.264C68.6795 134.947 69.9505 125.657 65.0112 118.144C56.2689 104.847 38.1777 104.297 25.471 111.793C18.7836 115.738 13.4904 121.669 9.54897 128.303L8.41345 130.229C6.90262 132.802 5.30261 135.713 4.98916 138.546C4.80843 140.182 5.41192 141.718 7.28775 140.894C8.80527 140.228 9.98026 138.673 10.8817 137.337C12.419 135.057 15.9517 137.027 14.6819 139.454L14.6387 139.533C12.7907 142.808 11.6529 146.416 11.4439 150.176L11.3908 151.217C11.356 151.976 11.331 153.054 11.4915 153.093C11.6839 153.141 13.0212 151.597 13.2438 151.383C14.3165 150.353 15.4212 149.511 16.9143 149.236C18.8772 148.876 20.8577 151.305 19.1538 152.898L19.0827 152.962C17.562 154.284 17.6296 156.92 19.3094 158.157C21.6801 159.902 24.5988 157.053 24.9429 154.708L24.9545 154.622C25.2587 152.088 28.7773 151.998 28.9684 154.622C29.3835 160.315 22.6063 165.086 17.4498 162.214C15.4108 161.079 14.1146 159.001 13.7085 156.773C13.0577 157.117 12.3555 157.356 11.6132 157.421C9.19648 157.636 7.4784 155.936 7.08764 153.655C6.63243 150.998 6.9024 148.153 7.60234 145.394C6.28989 145.71 4.90938 145.589 3.52166 144.788C-0.676645 142.365 0.528989 136.976 2.11412 133.338C8.88144 117.808 22.9019 103.716 40.2721 102.597C40.3672 99.857 40.7386 97.2666 41.3461 94.5229C47.2873 67.6856 66.5342 42.8349 91.5911 31.22C98.2867 28.1161 105.388 26.0282 112.77 25.5067ZM47.0596 132.711L47.2977 132.658C50.0048 132.074 57.1288 131.389 56.2702 135.945C56.2296 136.159 55.9182 136.133 55.8628 135.945C55.0217 133.08 49.3086 135.371 47.6406 136.061C45.3411 137.011 43.0727 138.413 41.195 140.042C37.0842 143.61 34.3286 148.639 33.9094 154.1C33.4939 159.518 35.0655 165.369 38.9731 169.288C40.8886 171.209 43.3336 172.513 46.0802 172.609C48.5478 172.695 51.2741 170.774 53.5511 171.899C54 172.12 54.3556 172.729 54.315 173.231C54.2384 174.179 53.8139 174.918 53.182 175.491C56.994 182.438 60.1138 189.792 64.9765 196.11C67.4166 199.279 70.1816 202.215 73.3127 204.713C74.8009 205.9 76.4189 206.944 78.0874 207.86C80.0426 208.935 81.7345 209.607 83.1299 211.428C84.3198 212.981 83.1295 215.984 81.168 216.251C76.5487 216.881 72.0597 213.146 68.6686 210.348C65.2807 207.552 62.3525 204.104 59.9326 200.445C55.2859 193.42 52.107 185.131 50.8361 176.746C49.3605 177.214 47.6992 177.357 46.4494 177.359C43.1241 177.367 39.9488 176.171 37.3357 174.149C27.769 166.749 26.7058 151.556 33.4569 141.975C36.6876 137.39 41.5966 134.003 47.0596 132.711ZM47.1194 150.333C49.3378 150.138 51.5543 150.488 53.6393 151.245L54.4988 151.556C56.3144 152.22 58.2471 153.001 59.5584 154.362C61.5618 156.443 59.567 160.048 56.7131 159.25C53.5577 158.369 50.9932 155.711 47.8387 154.596C45.0191 153.6 41.8254 153.741 39.3231 155.457C38.9928 155.684 38.5583 155.237 38.7742 154.907C40.6883 151.992 43.7103 150.632 47.1194 150.333Z" fill="black"/>
</svg>
